# This file uses centimeters as units for non-parametric coordinates.

mtllib source_electricity_blades.mtl
g default
v 1.008039 0.587407 1.020412
v 0.995313 0.570800 1.020412
v 1.208893 0.433492 1.020412
v 1.202114 0.424645 1.020412
v 1.208893 0.433492 1.012927
v 1.202114 0.424645 1.012927
v 1.008039 0.587407 1.012927
v 0.995313 0.570800 1.012927
v 1.013095 0.543272 1.020412
v 1.032532 0.568638 1.020412
v 1.032532 0.568638 1.012927
v 1.013095 0.543272 1.012927
v 0.990828 0.587337 1.020412
v 1.011751 0.587337 1.020412
v 0.990828 0.840383 1.020412
v 1.001974 0.840383 1.020412
v 0.990828 0.840383 1.012927
v 1.001974 0.840383 1.012927
v 0.990828 0.587337 1.012927
v 1.011751 0.587337 1.012927
v 1.022785 0.618195 1.020412
v 0.990828 0.618195 1.020412
v 0.990828 0.618195 1.012927
v 1.022785 0.618195 1.012927
v 1.007048 0.569619 1.020412
v 0.994501 0.586362 1.020412
v 0.804558 0.417863 1.020412
v 0.797874 0.426782 1.020412
v 0.804558 0.417863 1.012927
v 0.797874 0.426782 1.012927
v 1.007048 0.569619 1.012927
v 0.994501 0.586362 1.012927
v 0.963190 0.576685 1.020412
v 0.982355 0.551113 1.020412
v 0.982355 0.551113 1.012927
v 0.963190 0.576685 1.012927
vt 0.406135 0.234985
vt 0.444439 0.234985
vt 0.406135 0.273289
vt 0.444439 0.273289
vt 0.406135 0.311593
vt 0.444439 0.311593
vt 0.406135 0.349897
vt 0.444439 0.349897
vt 0.406135 0.388201
vt 0.444439 0.388201
vt 0.482743 0.234985
vt 0.482743 0.273289
vt 0.367831 0.234985
vt 0.367831 0.273289
vt 0.444439 0.239656
vt 0.406135 0.239656
vt 0.367831 0.239656
vt 0.406135 0.345226
vt 0.444439 0.345226
vt 0.482743 0.239656
vt 0.406135 0.234985
vt 0.444439 0.234985
vt 0.444439 0.239656
vt 0.406135 0.239656
vt 0.406135 0.273289
vt 0.444439 0.273289
vt 0.444439 0.311593
vt 0.406135 0.311593
vt 0.406135 0.345226
vt 0.444439 0.345226
vt 0.444439 0.349897
vt 0.406135 0.349897
vt 0.444439 0.388201
vt 0.406135 0.388201
vt 0.482743 0.234985
vt 0.482743 0.239656
vt 0.367831 0.234985
vt 0.367831 0.239656
vt 0.367831 0.273289
vt 0.482743 0.273289
vt 0.406135 0.234985
vt 0.444439 0.234985
vt 0.444439 0.239656
vt 0.406135 0.239656
vt 0.406135 0.273289
vt 0.444439 0.273289
vt 0.444439 0.311593
vt 0.406135 0.311593
vt 0.406135 0.345226
vt 0.444439 0.345226
vt 0.444439 0.349897
vt 0.406135 0.349897
vt 0.444439 0.388201
vt 0.406135 0.388201
vt 0.482743 0.234985
vt 0.482743 0.239656
vt 0.367831 0.234985
vt 0.367831 0.239656
vt 0.367831 0.273289
vt 0.482743 0.273289
vn 0.000000 0.000000 1.000000
vn 0.000000 0.000000 1.000000
vn 0.000000 0.000000 1.000000
vn 0.000000 0.000000 1.000000
vn 0.793741 -0.608256 0.000000
vn 0.793748 -0.608247 0.000000
vn 0.793745 -0.608251 0.000000
vn 0.793752 -0.608242 0.000000
vn -0.000000 0.000000 -1.000000
vn 0.000000 0.000000 -1.000000
vn -0.000000 0.000000 -1.000000
vn 0.000000 0.000000 -1.000000
vn -0.793743 0.608254 0.000000
vn -0.793747 0.608248 0.000000
vn -0.793744 0.608252 0.000000
vn -0.793748 0.608246 0.000000
vn -0.839983 -0.542613 0.000000
vn -0.839984 -0.542611 0.000000
vn -0.577147 -0.816640 0.000000
vn -0.577148 -0.816640 0.000000
vn 0.608249 0.793747 0.000000
vn 0.608249 0.793746 0.000002
vn 0.608255 0.793742 0.000002
vn 0.608255 0.793742 0.000002
vn 0.000000 0.000000 1.000000
vn 0.000000 0.000000 1.000000
vn 0.608245 0.793750 0.000000
vn 0.608244 0.793750 0.000000
vn 0.000000 0.000000 -1.000000
vn -0.000000 0.000000 -1.000000
vn -0.531585 -0.847005 0.000000
vn -0.531585 -0.847005 0.000000
vn 0.000000 0.000000 1.000000
vn 0.000000 0.000000 1.000000
vn 0.000000 0.000000 1.000000
vn 0.000000 0.000000 1.000000
vn 0.000000 1.000000 0.000000
vn 0.000000 1.000000 0.000000
vn 0.000000 1.000000 0.000000
vn 0.000000 1.000000 0.000000
vn 0.000000 0.000000 -1.000000
vn 0.000000 0.000000 -1.000000
vn 0.000000 0.000000 -1.000000
vn 0.000000 0.000000 -1.000000
vn 0.000000 -1.000000 0.000000
vn 0.000000 -1.000000 0.000000
vn 0.000000 -1.000000 0.000000
vn 0.000000 -1.000000 0.000000
vn 0.941614 -0.336695 0.000000
vn 0.941614 -0.336695 0.000000
vn 0.999254 0.038610 0.000000
vn 0.999254 0.038610 0.000000
vn -1.000000 0.000000 0.000000
vn -1.000000 0.000000 0.000000
vn -1.000000 0.000000 0.000000
vn -1.000000 0.000000 0.000000
vn 0.000000 0.000000 1.000000
vn 0.000000 0.000000 1.000000
vn -1.000000 0.000000 0.000000
vn -1.000000 0.000000 0.000000
vn 0.000000 0.000000 -1.000000
vn 0.000000 0.000000 -1.000000
vn 0.995642 0.093257 0.000000
vn 0.995642 0.093257 0.000000
vn -0.000006 0.000000 1.000000
vn -0.000000 0.000000 1.000000
vn -0.000002 0.000000 1.000000
vn -0.000002 0.000000 1.000000
vn -0.800201 -0.599732 0.000000
vn -0.800209 -0.599721 0.000000
vn -0.800206 -0.599725 0.000000
vn -0.800214 -0.599714 0.000000
vn -0.000001 0.000000 -1.000000
vn -0.000002 0.000000 -1.000000
vn -0.000001 0.000000 -1.000000
vn 0.000000 0.000000 -1.000000
vn 0.800211 0.599718 0.000000
vn 0.800211 0.599718 0.000000
vn 0.800211 0.599718 0.000000
vn 0.800211 0.599718 0.000000
vn -0.295273 0.955413 0.000000
vn -0.295275 0.955412 0.000000
vn -0.630159 0.776466 0.000000
vn -0.630159 0.776466 0.000000
vn 0.599726 -0.800206 0.000000
vn 0.599724 -0.800207 0.000000
vn 0.599724 -0.800207 0.000000
vn 0.599723 -0.800208 0.000000
vn -0.000001 0.000000 1.000000
vn 0.000000 0.000000 1.000000
vn 0.599714 -0.800215 0.000000
vn 0.599713 -0.800215 0.000000
vn 0.000000 0.000000 -1.000000
vn -0.000000 0.000000 -1.000000
vn -0.671740 0.740787 0.000000
vn -0.671741 0.740786 0.000000
s 1
g polySurface75
usemtl lambert3SG
f 1/1/1 2/2/2 10/16/3
f 10/16/3 2/2/2 9/15/4
s 2
f 3/3/5 4/4/6 5/5/7
f 5/5/7 4/4/6 6/6/8
s 3
f 12/19/9 8/8/10 11/18/11
f 11/18/11 8/8/10 7/7/12
s 4
f 7/7/13 8/8/14 1/9/15
f 1/9/15 8/8/14 2/10/16
s 5
f 2/2/17 8/11/18 9/15/19
f 9/15/19 8/11/18 12/20/20
s 6
f 7/13/21 1/1/22 11/17/23
f 11/17/23 1/1/22 10/16/24
s 1
f 9/15/4 4/4/25 10/16/3
f 10/16/3 4/4/25 3/3/26
s 6
f 11/17/23 10/16/24 5/14/27
f 5/14/27 10/16/24 3/3/28
s 3
f 5/5/29 6/6/30 11/18/11
f 11/18/11 6/6/30 12/19/9
s 5
f 9/15/19 12/20/20 4/4/31
f 4/4/31 12/20/20 6/12/32
s 7
f 13/21/33 14/22/34 22/24/35
f 22/24/35 14/22/34 21/23/36
s 8
f 15/25/37 16/26/38 17/28/39
f 17/28/39 16/26/38 18/27/40
s 9
f 24/30/41 20/31/42 23/29/43
f 23/29/43 20/31/42 19/32/44
s 10
f 19/32/45 20/31/46 13/34/47
f 13/34/47 20/31/46 14/33/48
s 11
f 14/22/49 20/35/50 21/23/51
f 21/23/51 20/35/50 24/36/52
s 12
f 19/37/53 13/21/54 23/38/55
f 23/38/55 13/21/54 22/24/56
s 7
f 21/23/36 16/26/57 22/24/35
f 22/24/35 16/26/57 15/25/58
s 12
f 23/38/55 22/24/56 17/39/59
f 17/39/59 22/24/56 15/25/60
s 9
f 17/28/61 18/27/62 23/29/43
f 23/29/43 18/27/62 24/30/41
s 11
f 21/23/51 24/36/52 16/26/63
f 16/26/63 24/36/52 18/40/64
s 13
f 25/41/65 26/42/66 34/44/67
f 34/44/67 26/42/66 33/43/68
s 14
f 27/45/69 28/46/70 29/48/71
f 29/48/71 28/46/70 30/47/72
s 15
f 36/50/73 32/51/74 35/49/75
f 35/49/75 32/51/74 31/52/76
s 16
f 31/52/77 32/51/78 25/54/79
f 25/54/79 32/51/78 26/53/80
s 17
f 26/42/81 32/55/82 33/43/83
f 33/43/83 32/55/82 36/56/84
s 18
f 31/57/85 25/41/86 35/58/87
f 35/58/87 25/41/86 34/44/88
s 13
f 33/43/68 28/46/89 34/44/67
f 34/44/67 28/46/89 27/45/90
s 18
f 35/58/87 34/44/88 29/59/91
f 29/59/91 34/44/88 27/45/92
s 15
f 29/48/93 30/47/94 35/49/75
f 35/49/75 30/47/94 36/50/73
s 17
f 33/43/83 36/56/84 28/46/95
f 28/46/95 36/56/84 30/60/96
