# This file uses centimeters as units for non-parametric coordinates.

mtllib supplied_electricity.mtl
g default
v -0.040335 -0.148852 3.819877
v -0.080559 -0.085297 3.804099
v -0.116741 -0.019372 3.789724
v -0.149462 0.048582 3.776551
v -0.178141 0.118904 3.764781
v -0.033549 -0.144875 3.822234
v -0.073773 -0.081319 3.806455
v -0.109956 -0.015395 3.792080
v -0.142677 0.052559 3.778907
v -0.171355 0.122881 3.767137
v -0.030652 -0.145042 3.814174
v -0.070876 -0.081487 3.798395
v -0.107059 -0.015562 3.784020
v -0.139780 0.052391 3.770847
v -0.168458 0.122714 3.759077
v -0.037438 -0.149020 3.811817
v -0.077662 -0.085464 3.796039
v -0.113844 -0.019540 3.781664
v -0.146565 0.048414 3.768491
v -0.175244 0.118737 3.756721
v -0.226422 0.119841 3.830668
v -0.207953 0.035773 3.866637
v -0.187157 -0.045247 3.907138
v -0.164369 -0.123656 3.951520
v -0.139254 -0.199016 4.000432
v -0.222516 0.124959 3.838275
v -0.204047 0.040891 3.874245
v -0.183251 -0.040129 3.914745
v -0.160462 -0.118538 3.959127
v -0.135347 -0.193897 4.008040
v -0.231766 0.124959 3.843025
v -0.213297 0.040891 3.878994
v -0.192501 -0.040129 3.919495
v -0.169713 -0.118538 3.963877
v -0.144597 -0.193897 4.012790
v -0.235672 0.119841 3.835418
v -0.217203 0.035773 3.871387
v -0.196407 -0.045247 3.911888
v -0.173619 -0.123656 3.956270
v -0.148504 -0.199016 4.005182
v -0.218443 0.157421 3.808474
v -0.187536 0.065614 3.840010
v -0.152736 -0.022864 3.875519
v -0.114600 -0.108491 3.914430
v -0.072571 -0.190788 3.957315
v -0.211906 0.163011 3.815144
v -0.180999 0.071203 3.846679
v -0.146199 -0.017275 3.882189
v -0.108063 -0.102902 3.921100
v -0.066034 -0.185199 3.963985
v -0.220016 0.163011 3.823092
v -0.189110 0.071203 3.854628
v -0.154309 -0.017275 3.890137
v -0.116173 -0.102902 3.929049
v -0.074144 -0.185199 3.971933
v -0.226553 0.157421 3.816422
v -0.195646 0.065614 3.847958
v -0.160846 -0.022864 3.883467
v -0.122710 -0.108491 3.922379
v -0.080681 -0.190788 3.965263
v -0.060581 -0.110001 3.871973
v -0.098928 -0.046496 3.845964
v -0.133722 0.019579 3.822365
v -0.165474 0.087854 3.800829
v -0.193673 0.158698 3.781703
v -0.054617 -0.105688 3.876019
v -0.092964 -0.042183 3.850010
v -0.127758 0.023892 3.826411
v -0.159510 0.092167 3.804874
v -0.187709 0.163011 3.785748
v -0.049698 -0.105688 3.868767
v -0.088045 -0.042183 3.842758
v -0.122839 0.023892 3.819159
v -0.154591 0.092167 3.797622
v -0.182790 0.163011 3.778497
v -0.055663 -0.110001 3.864721
v -0.094009 -0.046496 3.838712
v -0.128804 0.019579 3.815113
v -0.160555 0.087854 3.793577
v -0.188754 0.158698 3.774451
v -0.203148 0.000000 3.764384
v -0.235616 0.000000 3.803148
v -0.201690 0.117313 3.780877
v -0.219123 0.117313 3.801690
v -0.191284 0.117313 3.789593
v -0.208717 0.117313 3.810406
v -0.183766 0.000000 3.780618
v -0.216234 0.000000 3.819382
v -0.166291 0.115235 3.747592
v -0.245682 0.115235 3.842379
v -0.166291 0.125341 3.747592
v -0.245682 0.125341 3.842379
v -0.160304 0.125341 3.752606
v -0.239696 0.125341 3.847393
v -0.160304 0.115235 3.752606
v -0.239696 0.115235 3.847393
v -0.178055 0.153332 3.761638
v -0.233918 0.153332 3.828334
v -0.178055 0.163438 3.761638
v -0.233918 0.163438 3.828334
v -0.172069 0.163438 3.766652
v -0.227932 0.163438 3.833348
v -0.172069 0.153332 3.766652
v -0.227932 0.153332 3.833348
v -0.199446 0.117313 3.777023
v -0.222524 0.117313 3.804576
v -0.201202 0.163527 3.786407
v -0.213593 0.163527 3.801201
v -0.193805 0.163527 3.792603
v -0.206196 0.163527 3.807397
v -0.188461 0.117313 3.786223
v -0.211539 0.117313 3.813776
v -0.196852 0.000000 3.835616
v -0.164384 0.000000 3.796852
v -0.198310 0.117313 3.819123
v -0.180877 0.117313 3.798310
v -0.208716 0.117313 3.810406
v -0.191284 0.117313 3.789593
v -0.216234 0.000000 3.819382
v -0.183766 0.000000 3.780618
v -0.233710 0.115235 3.852407
v -0.154318 0.115235 3.757620
v -0.233710 0.125341 3.852407
v -0.154318 0.125341 3.757620
v -0.239696 0.125341 3.847394
v -0.160304 0.125341 3.752606
v -0.239696 0.115235 3.847394
v -0.160304 0.115235 3.752606
v -0.221945 0.153332 3.838362
v -0.166082 0.153332 3.771666
v -0.221945 0.163438 3.838362
v -0.166082 0.163438 3.771666
v -0.227932 0.163438 3.833348
v -0.172068 0.163438 3.766652
v -0.227932 0.153332 3.833348
v -0.172068 0.153332 3.766652
v -0.200555 0.117313 3.822977
v -0.177477 0.117313 3.795424
v -0.198799 0.163527 3.813592
v -0.186408 0.163527 3.798799
v -0.206196 0.163527 3.807397
v -0.193804 0.163527 3.792603
v -0.211539 0.117313 3.813776
v -0.188461 0.117313 3.786223
vt 0.571099 0.416268
vt 0.571287 0.359382
vt 0.626466 0.421883
vt 0.626677 0.362882
vt 0.515732 0.410653
vt 0.515896 0.355881
vt 0.460365 0.405038
vt 0.460506 0.352380
vt 0.404998 0.399423
vt 0.405116 0.348880
vt 0.571331 0.236723
vt 0.626747 0.236115
vt 0.515914 0.237331
vt 0.460498 0.237939
vt 0.405081 0.238548
vt 0.571348 0.161417
vt 0.626756 0.157758
vt 0.515940 0.165075
vt 0.460532 0.168734
vt 0.405124 0.172392
vt 0.571193 0.110133
vt 0.626584 0.105418
vt 0.515801 0.114847
vt 0.460410 0.119561
vt 0.405019 0.124276
vt 0.571099 0.416268
vt 0.571287 0.359382
vt 0.626466 0.421883
vt 0.626677 0.362882
vt 0.515732 0.410653
vt 0.515896 0.355881
vt 0.460365 0.405038
vt 0.460506 0.352380
vt 0.404998 0.399423
vt 0.405116 0.348880
vt 0.571331 0.236723
vt 0.626747 0.236115
vt 0.515914 0.237331
vt 0.460498 0.237939
vt 0.405081 0.238548
vt 0.571348 0.161417
vt 0.626756 0.157758
vt 0.515940 0.165075
vt 0.460532 0.168734
vt 0.405124 0.172392
vt 0.571193 0.110133
vt 0.626584 0.105418
vt 0.515801 0.114847
vt 0.460410 0.119561
vt 0.405019 0.124276
vt 0.571099 0.416268
vt 0.571287 0.359382
vt 0.626466 0.421883
vt 0.626677 0.362882
vt 0.515732 0.410653
vt 0.515896 0.355881
vt 0.460365 0.405038
vt 0.460506 0.352380
vt 0.404998 0.399423
vt 0.405116 0.348880
vt 0.571331 0.236723
vt 0.626747 0.236115
vt 0.515914 0.237331
vt 0.460498 0.237939
vt 0.405081 0.238548
vt 0.571348 0.161417
vt 0.626756 0.157758
vt 0.515940 0.165075
vt 0.460532 0.168734
vt 0.405124 0.172392
vt 0.571193 0.110133
vt 0.626584 0.105418
vt 0.515801 0.114847
vt 0.460410 0.119561
vt 0.405019 0.124276
vt 0.571099 0.416268
vt 0.571287 0.359382
vt 0.626466 0.421883
vt 0.626677 0.362882
vt 0.515732 0.410653
vt 0.515896 0.355881
vt 0.460365 0.405038
vt 0.460506 0.352380
vt 0.404998 0.399423
vt 0.405116 0.348880
vt 0.571331 0.236723
vt 0.626747 0.236115
vt 0.515914 0.237331
vt 0.460498 0.237939
vt 0.405081 0.238548
vt 0.571348 0.161417
vt 0.626756 0.157758
vt 0.515940 0.165075
vt 0.460532 0.168734
vt 0.405124 0.172392
vt 0.571193 0.110133
vt 0.626584 0.105418
vt 0.515801 0.114847
vt 0.460410 0.119561
vt 0.405019 0.124276
vt 0.427693 0.564352
vt 0.500632 0.564352
vt 0.427693 0.637271
vt 0.500632 0.637271
vt 0.428518 0.674097
vt 0.499808 0.674097
vt 0.398306 0.818898
vt 0.530020 0.818898
vt 0.398852 0.884930
vt 0.529474 0.884930
vt 0.551507 0.564440
vt 0.537117 0.637194
vt 0.376818 0.564440
vt 0.391208 0.637194
vt 0.427693 0.564332
vt 0.500632 0.564332
vt 0.427693 0.637271
vt 0.500632 0.637271
vt 0.427728 0.677040
vt 0.500597 0.677040
vt 0.427728 0.816319
vt 0.500597 0.816319
vt 0.427693 0.856088
vt 0.500632 0.856088
vt 0.537102 0.572502
vt 0.537102 0.629101
vt 0.391224 0.572502
vt 0.391224 0.629101
vt 0.427693 0.564332
vt 0.500632 0.564332
vt 0.427693 0.637271
vt 0.500632 0.637271
vt 0.427764 0.677040
vt 0.500561 0.677040
vt 0.427764 0.816319
vt 0.500561 0.816319
vt 0.427693 0.856088
vt 0.500632 0.856088
vt 0.537102 0.572502
vt 0.537102 0.629102
vt 0.391224 0.572502
vt 0.391224 0.629102
vt 0.427693 0.564352
vt 0.500632 0.564352
vt 0.427693 0.637271
vt 0.500632 0.637271
vt 0.428939 0.674459
vt 0.499387 0.674459
vt 0.398752 0.818405
vt 0.529574 0.818405
vt 0.398852 0.884930
vt 0.529474 0.884930
vt 0.551427 0.564844
vt 0.537197 0.636790
vt 0.376898 0.564844
vt 0.391129 0.636790
vt 0.427693 0.564352
vt 0.500632 0.564352
vt 0.427693 0.637271
vt 0.500632 0.637271
vt 0.428518 0.674097
vt 0.499808 0.674097
vt 0.398306 0.818898
vt 0.530020 0.818898
vt 0.398852 0.884930
vt 0.529474 0.884930
vt 0.551507 0.564440
vt 0.537117 0.637194
vt 0.376818 0.564440
vt 0.391208 0.637194
vt 0.427693 0.564332
vt 0.500632 0.564332
vt 0.427693 0.637271
vt 0.500632 0.637271
vt 0.427728 0.677040
vt 0.500597 0.677040
vt 0.427728 0.816319
vt 0.500597 0.816319
vt 0.427693 0.856088
vt 0.500632 0.856088
vt 0.537102 0.572502
vt 0.537102 0.629101
vt 0.391224 0.572502
vt 0.391224 0.629101
vt 0.427693 0.564332
vt 0.500632 0.564332
vt 0.427693 0.637271
vt 0.500632 0.637271
vt 0.427764 0.677040
vt 0.500561 0.677040
vt 0.427764 0.816319
vt 0.500561 0.816319
vt 0.427693 0.856088
vt 0.500632 0.856088
vt 0.537102 0.572502
vt 0.537102 0.629102
vt 0.391224 0.572502
vt 0.391224 0.629102
vt 0.427693 0.564352
vt 0.500632 0.564352
vt 0.427693 0.637271
vt 0.500632 0.637271
vt 0.428939 0.674459
vt 0.499387 0.674459
vt 0.398752 0.818405
vt 0.529574 0.818405
vt 0.398852 0.884930
vt 0.529474 0.884930
vt 0.551427 0.564844
vt 0.537197 0.636790
vt 0.376898 0.564844
vt 0.391129 0.636790
vn -0.359824 -0.325849 -0.874271
vn -0.844215 -0.284673 0.454161
vn -0.371765 -0.298728 -0.878950
vn -0.688850 -0.162714 0.706406
vn -0.496491 -0.420469 -0.759409
vn -0.878597 -0.385494 0.281890
vn -0.321455 -0.398561 -0.858962
vn -0.807289 -0.358222 0.469000
vn -0.047274 -0.268774 -0.962043
vn -0.792169 -0.383470 0.474784
vn 0.359812 0.325851 0.874275
vn 0.621485 0.369110 0.691024
vn 0.222694 0.310996 0.923953
vn 0.321462 0.398569 0.858956
vn 0.313918 0.411135 0.855818
vn 0.844201 0.284662 -0.454194
vn 0.850018 0.271055 -0.451662
vn 0.768780 0.270129 -0.579662
vn 0.807287 0.358241 -0.468989
vn 0.850772 0.493827 -0.179782
vn -0.897871 -0.392078 -0.200258
vn 0.364330 -0.404478 -0.838845
vn -0.889948 -0.416780 -0.185169
vn 0.630646 -0.263597 -0.729933
vn -0.821406 -0.420729 -0.385071
vn 0.169267 -0.433745 -0.884994
vn -0.917140 -0.319866 -0.237779
vn 0.344363 -0.333172 -0.877730
vn -0.979757 -0.193846 0.050006
vn 0.337970 -0.306487 -0.889855
vn 0.897866 0.392084 0.200267
vn 0.727867 0.527186 0.438502
vn 0.948136 0.303363 0.094920
vn 0.917140 0.319864 0.237785
vn 0.920100 0.306485 0.243893
vn -0.364332 0.404480 0.838844
vn -0.368086 0.416783 0.831147
vn -0.477939 0.312746 0.820831
vn -0.344376 0.333173 0.877725
vn -0.029666 0.387681 0.921316
vn -0.916878 -0.392072 0.074931
vn 0.099301 -0.404475 -0.909142
vn -0.904837 -0.416779 0.086978
vn 0.385928 -0.263589 -0.884071
vn -0.898645 -0.420715 -0.124244
vn -0.100683 -0.433750 -0.895391
vn -0.946406 -0.319859 0.044791
vn 0.068705 -0.333174 -0.940359
vn -0.920889 -0.193831 0.338221
vn 0.058992 -0.306488 -0.950045
vn 0.916875 0.392083 -0.074912
vn 0.825141 0.527192 0.203005
vn 0.933657 0.303356 -0.190422
vn 0.946404 0.319867 -0.044773
vn 0.951038 0.306498 -0.039813
vn -0.099286 0.404472 0.909145
vn -0.105173 0.416775 0.902905
vn -0.213116 0.312745 0.925620
vn -0.068696 0.333171 0.940361
vn 0.244782 0.387681 0.888699
vn -0.119021 -0.333168 -0.935325
vn -0.918759 -0.319870 0.231444
vn -0.130448 -0.306488 -0.942894
vn -0.835604 -0.193844 0.513995
vn -0.276102 -0.433751 -0.857688
vn -0.905441 -0.420724 0.056280
vn -0.082833 -0.404474 -0.910791
vn -0.883844 -0.392087 0.255123
vn 0.203076 -0.263592 -0.943016
vn -0.869660 -0.416788 0.264538
vn 0.119002 0.333178 0.935324
vn 0.416034 0.387683 0.822568
vn -0.025478 0.312745 0.949495
vn 0.082842 0.404471 0.910791
vn 0.075790 0.416786 0.905840
vn 0.918760 0.319866 -0.231444
vn 0.924289 0.306492 -0.227494
vn 0.877402 0.303370 -0.371663
vn 0.883839 0.392085 -0.255142
vn 0.849009 0.527187 0.035460
vn -0.762826 0.099306 -0.638933
vn -0.762830 0.099306 -0.638928
vn -0.762830 0.099306 -0.638928
vn -0.762834 0.099305 -0.638923
vn 0.000000 1.000000 0.000000
vn 0.000000 1.000000 0.000000
vn 0.000000 1.000000 0.000000
vn 0.000000 1.000000 0.000000
vn 0.766616 -0.000001 0.642106
vn 0.766617 -0.000001 0.642104
vn 0.766617 -0.000001 0.642104
vn 0.766619 -0.000001 0.642102
vn 0.000000 -1.000000 0.000000
vn 0.000000 -1.000000 0.000000
vn 0.000000 -1.000000 0.000000
vn 0.000000 -1.000000 0.000000
vn -0.638927 0.099306 0.762830
vn -0.638938 0.099305 0.762822
vn -0.638938 0.099305 0.762822
vn -0.638948 0.099304 0.762814
vn 0.638939 0.099304 -0.762821
vn 0.638932 0.099306 -0.762826
vn 0.638932 0.099306 -0.762826
vn 0.638926 0.099308 -0.762832
vn -0.766619 0.000000 -0.642103
vn -0.766618 0.000000 -0.642103
vn -0.766618 0.000000 -0.642103
vn -0.766618 0.000000 -0.642103
vn 0.000000 1.000000 0.000000
vn 0.000000 1.000000 0.000000
vn 0.000000 1.000000 0.000000
vn 0.000000 1.000000 0.000000
vn 0.766618 0.000000 0.642103
vn 0.766618 0.000000 0.642103
vn 0.766618 0.000000 0.642103
vn 0.766619 0.000000 0.642103
vn 0.000000 -1.000000 -0.000001
vn 0.000000 -1.000000 -0.000000
vn 0.000000 -1.000000 -0.000000
vn 0.000000 -1.000000 0.000000
vn -0.642106 0.000000 0.766616
vn -0.642105 0.000000 0.766617
vn -0.642105 0.000000 0.766617
vn -0.642105 0.000000 0.766617
vn 0.642053 0.000000 -0.766660
vn 0.642108 0.000000 -0.766614
vn 0.642108 0.000000 -0.766614
vn 0.642163 0.000000 -0.766569
vn -0.766617 0.000000 -0.642105
vn -0.766619 0.000000 -0.642102
vn -0.766619 0.000000 -0.642102
vn -0.766621 0.000000 -0.642099
vn 0.000000 1.000000 0.000000
vn 0.000000 1.000000 0.000000
vn 0.000000 1.000000 0.000000
vn 0.000000 1.000000 0.000000
vn 0.766621 0.000000 0.642099
vn 0.766619 0.000000 0.642102
vn 0.766619 0.000000 0.642102
vn 0.766617 0.000000 0.642105
vn 0.000000 -1.000000 -0.000001
vn 0.000000 -1.000000 -0.000001
vn 0.000000 -1.000000 -0.000001
vn 0.000000 -1.000000 0.000000
vn -0.642048 0.000000 0.766665
vn -0.642077 0.000000 0.766640
vn -0.642077 0.000000 0.766640
vn -0.642106 0.000000 0.766616
vn 0.642051 0.000000 -0.766662
vn 0.642079 0.000000 -0.766639
vn 0.642079 0.000000 -0.766639
vn 0.642107 0.000000 -0.766615
vn -0.762715 0.100743 -0.638841
vn -0.762718 0.100745 -0.638837
vn -0.762718 0.100745 -0.638837
vn -0.762720 0.100748 -0.638833
vn 0.000000 1.000000 0.000000
vn 0.000000 1.000000 0.000000
vn 0.000000 1.000000 0.000000
vn 0.000000 1.000000 0.000000
vn 0.766621 -0.000001 0.642100
vn 0.766618 -0.000000 0.642104
vn 0.766618 -0.000000 0.642104
vn 0.766615 0.000000 0.642107
vn 0.000000 -1.000000 0.000000
vn 0.000000 -1.000000 0.000000
vn 0.000000 -1.000000 0.000000
vn 0.000000 -1.000000 0.000000
vn -0.631942 0.177219 0.754482
vn -0.631934 0.177221 0.754488
vn -0.631934 0.177221 0.754488
vn -0.631927 0.177222 0.754494
vn 0.631916 0.177219 -0.754504
vn 0.631941 0.177218 -0.754483
vn 0.631941 0.177218 -0.754483
vn 0.631966 0.177217 -0.754462
vn 0.762826 0.099307 0.638933
vn 0.762826 0.099306 0.638933
vn 0.762826 0.099306 0.638933
vn 0.762826 0.099305 0.638933
vn 0.000000 1.000000 0.000000
vn 0.000000 1.000000 0.000001
vn 0.000000 1.000000 0.000001
vn 0.000000 1.000000 0.000001
vn -0.766616 -0.000001 -0.642106
vn -0.766617 -0.000001 -0.642104
vn -0.766617 -0.000001 -0.642104
vn -0.766619 -0.000001 -0.642102
vn 0.000000 -1.000000 0.000000
vn 0.000000 -1.000000 0.000000
vn 0.000000 -1.000000 0.000000
vn 0.000000 -1.000000 0.000000
vn 0.638940 0.099305 -0.762820
vn 0.638932 0.099306 -0.762826
vn 0.638932 0.099306 -0.762826
vn 0.638925 0.099306 -0.762832
vn -0.638916 0.099308 0.762840
vn -0.638932 0.099307 0.762827
vn -0.638932 0.099307 0.762827
vn -0.638948 0.099305 0.762814
vn 0.766616 0.000000 0.642106
vn 0.766617 0.000000 0.642105
vn 0.766617 0.000000 0.642105
vn 0.766618 0.000000 0.642103
vn 0.000000 1.000000 -0.000000
vn 0.000000 1.000000 -0.000000
vn 0.000000 1.000000 -0.000000
vn 0.000000 1.000000 0.000000
vn -0.766618 0.000000 -0.642103
vn -0.766618 0.000000 -0.642103
vn -0.766618 0.000000 -0.642103
vn -0.766619 0.000000 -0.642103
vn 0.000000 -1.000000 0.000000
vn 0.000000 -1.000000 0.000000
vn 0.000000 -1.000000 0.000000
vn 0.000000 -1.000000 0.000000
vn 0.642106 0.000000 -0.766616
vn 0.642105 0.000000 -0.766617
vn 0.642105 0.000000 -0.766617
vn 0.642105 0.000000 -0.766617
vn -0.642108 0.000000 0.766614
vn -0.642079 0.000000 0.766638
vn -0.642079 0.000000 0.766638
vn -0.642051 0.000000 0.766662
vn 0.766620 0.000000 0.642101
vn 0.766618 0.000000 0.642103
vn 0.766618 0.000000 0.642103
vn 0.766617 0.000000 0.642105
vn 0.000000 1.000000 -0.000002
vn 0.000000 1.000000 -0.000001
vn 0.000000 1.000000 -0.000001
vn 0.000000 1.000000 0.000000
vn -0.766621 0.000000 -0.642099
vn -0.766619 0.000000 -0.642102
vn -0.766619 0.000000 -0.642102
vn -0.766617 0.000000 -0.642105
vn 0.000000 -1.000000 0.000001
vn 0.000000 -1.000000 0.000001
vn 0.000000 -1.000000 0.000001
vn 0.000000 -1.000000 0.000000
vn 0.642103 0.000000 -0.766618
vn 0.642105 0.000000 -0.766617
vn 0.642105 0.000000 -0.766617
vn 0.642106 0.000000 -0.766616
vn -0.642106 0.000000 0.766616
vn -0.642106 0.000000 0.766616
vn -0.642106 0.000000 0.766616
vn -0.642106 0.000000 0.766616
vn 0.762721 0.100747 0.638832
vn 0.762721 0.100744 0.638833
vn 0.762721 0.100744 0.638833
vn 0.762720 0.100742 0.638834
vn 0.000000 1.000000 0.000000
vn 0.000000 1.000000 0.000000
vn 0.000000 1.000000 0.000000
vn 0.000000 1.000000 0.000000
vn -0.766620 -0.000001 -0.642101
vn -0.766621 0.000001 -0.642099
vn -0.766621 0.000001 -0.642099
vn -0.766622 0.000002 -0.642098
vn 0.000000 -1.000000 0.000000
vn 0.000000 -1.000000 0.000000
vn 0.000000 -1.000000 0.000000
vn 0.000000 -1.000000 0.000000
vn 0.631941 0.177223 -0.754481
vn 0.631953 0.177221 -0.754472
vn 0.631953 0.177221 -0.754472
vn 0.631965 0.177218 -0.754463
vn -0.631969 0.177217 0.754459
vn -0.631948 0.177219 0.754477
vn -0.631948 0.177219 0.754477
vn -0.631926 0.177221 0.754495
s 1
g polySurface154
usemtl lambert3SG
f 19/1/1 4/2/2 20/3/3
f 20/3/3 4/2/2 5/4/4
f 18/5/5 3/6/6 19/1/1
f 19/1/1 3/6/6 4/2/2
f 17/7/7 2/8/8 18/5/5
f 18/5/5 2/8/8 3/6/6
f 16/9/9 1/10/10 17/7/7
f 17/7/7 1/10/10 2/8/8
f 4/2/2 9/11/11 5/4/4
f 5/4/4 9/11/11 10/12/12
f 3/6/6 8/13/13 4/2/2
f 4/2/2 8/13/13 9/11/11
f 7/14/14 8/13/13 2/8/8
f 2/8/8 8/13/13 3/6/6
f 6/15/15 7/14/14 1/10/10
f 1/10/10 7/14/14 2/8/8
f 9/11/11 14/16/16 10/12/12
f 10/12/12 14/16/16 15/17/17
f 8/13/13 13/18/18 9/11/11
f 9/11/11 13/18/18 14/16/16
f 7/14/14 12/19/19 8/13/13
f 8/13/13 12/19/19 13/18/18
f 6/15/15 11/20/20 7/14/14
f 7/14/14 11/20/20 12/19/19
f 19/21/1 20/22/3 14/16/16
f 14/16/16 20/22/3 15/17/17
f 18/23/5 19/21/1 13/18/18
f 13/18/18 19/21/1 14/16/16
f 12/19/19 17/24/7 13/18/18
f 13/18/18 17/24/7 18/23/5
f 11/20/20 16/25/9 12/19/19
f 12/19/19 16/25/9 17/24/7
s 6
f 39/26/21 24/27/22 40/28/23
f 40/28/23 24/27/22 25/29/24
f 38/30/25 23/31/26 39/26/21
f 39/26/21 23/31/26 24/27/22
f 37/32/27 22/33/28 38/30/25
f 38/30/25 22/33/28 23/31/26
f 36/34/29 21/35/30 37/32/27
f 37/32/27 21/35/30 22/33/28
f 24/27/22 29/36/31 25/29/24
f 25/29/24 29/36/31 30/37/32
f 23/31/26 28/38/33 24/27/22
f 24/27/22 28/38/33 29/36/31
f 27/39/34 28/38/33 22/33/28
f 22/33/28 28/38/33 23/31/26
f 26/40/35 27/39/34 21/35/30
f 21/35/30 27/39/34 22/33/28
f 29/36/31 34/41/36 30/37/32
f 30/37/32 34/41/36 35/42/37
f 28/38/33 33/43/38 29/36/31
f 29/36/31 33/43/38 34/41/36
f 27/39/34 32/44/39 28/38/33
f 28/38/33 32/44/39 33/43/38
f 26/40/35 31/45/40 27/39/34
f 27/39/34 31/45/40 32/44/39
f 39/46/21 40/47/23 34/41/36
f 34/41/36 40/47/23 35/42/37
f 38/48/25 39/46/21 33/43/38
f 33/43/38 39/46/21 34/41/36
f 32/44/39 37/49/27 33/43/38
f 33/43/38 37/49/27 38/48/25
f 31/45/40 36/50/29 32/44/39
f 32/44/39 36/50/29 37/49/27
s 11
f 59/51/41 44/52/42 60/53/43
f 60/53/43 44/52/42 45/54/44
f 58/55/45 43/56/46 59/51/41
f 59/51/41 43/56/46 44/52/42
f 57/57/47 42/58/48 58/55/45
f 58/55/45 42/58/48 43/56/46
f 56/59/49 41/60/50 57/57/47
f 57/57/47 41/60/50 42/58/48
f 44/52/42 49/61/51 45/54/44
f 45/54/44 49/61/51 50/62/52
f 43/56/46 48/63/53 44/52/42
f 44/52/42 48/63/53 49/61/51
f 47/64/54 48/63/53 42/58/48
f 42/58/48 48/63/53 43/56/46
f 46/65/55 47/64/54 41/60/50
f 41/60/50 47/64/54 42/58/48
f 49/61/51 54/66/56 50/62/52
f 50/62/52 54/66/56 55/67/57
f 48/63/53 53/68/58 49/61/51
f 49/61/51 53/68/58 54/66/56
f 47/64/54 52/69/59 48/63/53
f 48/63/53 52/69/59 53/68/58
f 46/65/55 51/70/60 47/64/54
f 47/64/54 51/70/60 52/69/59
f 59/71/41 60/72/43 54/66/56
f 54/66/56 60/72/43 55/67/57
f 58/73/45 59/71/41 53/68/58
f 53/68/58 59/71/41 54/66/56
f 52/69/59 57/74/47 53/68/58
f 53/68/58 57/74/47 58/73/45
f 51/70/60 56/75/49 52/69/59
f 52/69/59 56/75/49 57/74/47
s 16
f 79/76/61 64/77/62 80/78/63
f 80/78/63 64/77/62 65/79/64
f 78/80/65 63/81/66 79/76/61
f 79/76/61 63/81/66 64/77/62
f 77/82/67 62/83/68 78/80/65
f 78/80/65 62/83/68 63/81/66
f 76/84/69 61/85/70 77/82/67
f 77/82/67 61/85/70 62/83/68
f 64/77/62 69/86/71 65/79/64
f 65/79/64 69/86/71 70/87/72
f 63/81/66 68/88/73 64/77/62
f 64/77/62 68/88/73 69/86/71
f 67/89/74 68/88/73 62/83/68
f 62/83/68 68/88/73 63/81/66
f 66/90/75 67/89/74 61/85/70
f 61/85/70 67/89/74 62/83/68
f 69/86/71 74/91/76 70/87/72
f 70/87/72 74/91/76 75/92/77
f 68/88/73 73/93/78 69/86/71
f 69/86/71 73/93/78 74/91/76
f 67/89/74 72/94/79 68/88/73
f 68/88/73 72/94/79 73/93/78
f 66/90/75 71/95/80 67/89/74
f 67/89/74 71/95/80 72/94/79
f 79/96/61 80/97/63 74/91/76
f 74/91/76 80/97/63 75/92/77
f 78/98/65 79/96/61 73/93/78
f 73/93/78 79/96/61 74/91/76
f 72/94/79 77/99/67 73/93/78
f 73/93/78 77/99/67 78/98/65
f 71/95/80 76/100/69 72/94/79
f 72/94/79 76/100/69 77/99/67
s 21
f 81/101/81 82/102/82 83/103/83
f 83/103/83 82/102/82 84/104/84
s 22
f 83/103/85 84/104/86 85/105/87
f 85/105/87 84/104/86 86/106/88
s 23
f 85/105/89 86/106/90 87/107/91
f 87/107/91 86/106/90 88/108/92
s 24
f 87/107/93 88/108/94 81/109/95
f 81/109/95 88/108/94 82/110/96
s 25
f 82/102/97 88/111/98 84/104/99
f 84/104/99 88/111/98 86/112/100
s 26
f 81/101/101 83/103/102 87/113/103
f 87/113/103 83/103/102 85/114/104
s 27
f 89/115/105 90/116/106 91/117/107
f 91/117/107 90/116/106 92/118/108
s 28
f 91/117/109 92/118/110 93/119/111
f 93/119/111 92/118/110 94/120/112
s 29
f 93/119/113 94/120/114 95/121/115
f 95/121/115 94/120/114 96/122/116
s 30
f 95/121/117 96/122/118 89/123/119
f 89/123/119 96/122/118 90/124/120
s 31
f 90/116/121 96/125/122 92/118/123
f 92/118/123 96/125/122 94/126/124
s 32
f 95/127/125 89/115/126 93/128/127
f 93/128/127 89/115/126 91/117/128
s 33
f 97/129/129 98/130/130 99/131/131
f 99/131/131 98/130/130 100/132/132
s 34
f 99/131/133 100/132/134 101/133/135
f 101/133/135 100/132/134 102/134/136
s 35
f 101/133/137 102/134/138 103/135/139
f 103/135/139 102/134/138 104/136/140
s 36
f 103/135/141 104/136/142 97/137/143
f 97/137/143 104/136/142 98/138/144
s 37
f 98/130/145 104/139/146 100/132/147
f 100/132/147 104/139/146 102/140/148
s 38
f 103/141/149 97/129/150 101/142/151
f 101/142/151 97/129/150 99/131/152
s 39
f 105/143/153 106/144/154 107/145/155
f 107/145/155 106/144/154 108/146/156
s 40
f 107/145/157 108/146/158 109/147/159
f 109/147/159 108/146/158 110/148/160
s 41
f 109/147/161 110/148/162 111/149/163
f 111/149/163 110/148/162 112/150/164
s 42
f 111/149/165 112/150/166 105/151/167
f 105/151/167 112/150/166 106/152/168
s 43
f 106/144/169 112/153/170 108/146/171
f 108/146/171 112/153/170 110/154/172
s 44
f 105/143/173 107/145/174 111/155/175
f 111/155/175 107/145/174 109/156/176
s 45
f 113/157/177 114/158/178 115/159/179
f 115/159/179 114/158/178 116/160/180
s 46
f 115/159/181 116/160/182 117/161/183
f 117/161/183 116/160/182 118/162/184
s 47
f 117/161/185 118/162/186 119/163/187
f 119/163/187 118/162/186 120/164/188
s 48
f 119/163/189 120/164/190 113/165/191
f 113/165/191 120/164/190 114/166/192
s 49
f 114/158/193 120/167/194 116/160/195
f 116/160/195 120/167/194 118/168/196
s 50
f 113/157/197 115/159/198 119/169/199
f 119/169/199 115/159/198 117/170/200
s 51
f 121/171/201 122/172/202 123/173/203
f 123/173/203 122/172/202 124/174/204
s 52
f 123/173/205 124/174/206 125/175/207
f 125/175/207 124/174/206 126/176/208
s 53
f 125/175/209 126/176/210 127/177/211
f 127/177/211 126/176/210 128/178/212
s 54
f 127/177/213 128/178/214 121/179/215
f 121/179/215 128/178/214 122/180/216
s 55
f 122/172/217 128/181/218 124/174/219
f 124/174/219 128/181/218 126/182/220
s 56
f 127/183/221 121/171/222 125/184/223
f 125/184/223 121/171/222 123/173/224
s 57
f 129/185/225 130/186/226 131/187/227
f 131/187/227 130/186/226 132/188/228
s 58
f 131/187/229 132/188/230 133/189/231
f 133/189/231 132/188/230 134/190/232
s 59
f 133/189/233 134/190/234 135/191/235
f 135/191/235 134/190/234 136/192/236
s 60
f 135/191/237 136/192/238 129/193/239
f 129/193/239 136/192/238 130/194/240
s 61
f 130/186/241 136/195/242 132/188/243
f 132/188/243 136/195/242 134/196/244
s 62
f 135/197/245 129/185/246 133/198/247
f 133/198/247 129/185/246 131/187/248
s 63
f 137/199/249 138/200/250 139/201/251
f 139/201/251 138/200/250 140/202/252
s 64
f 139/201/253 140/202/254 141/203/255
f 141/203/255 140/202/254 142/204/256
s 65
f 141/203/257 142/204/258 143/205/259
f 143/205/259 142/204/258 144/206/260
s 66
f 143/205/261 144/206/262 137/207/263
f 137/207/263 144/206/262 138/208/264
s 67
f 138/200/265 144/209/266 140/202/267
f 140/202/267 144/209/266 142/210/268
s 68
f 137/199/269 139/201/270 143/211/271
f 143/211/271 139/201/270 141/212/272
