# This file uses centimeters as units for non-parametric coordinates.

mtllib supplied_water.mtl
g default
v -0.357090 0.149878 3.786058
v -0.363499 0.149878 3.773480
v -0.373480 0.149878 3.763499
v -0.386058 0.149878 3.757090
v -0.400000 0.149878 3.754882
v -0.413942 0.149878 3.757090
v -0.426520 0.149878 3.763499
v -0.436501 0.149878 3.773480
v -0.442910 0.149878 3.786058
v -0.445118 0.149878 3.800000
v -0.442910 0.149878 3.813942
v -0.436501 0.149878 3.826519
v -0.426520 0.149878 3.836501
v -0.413942 0.149878 3.842910
v -0.400000 0.149878 3.845118
v -0.386058 0.149878 3.842910
v -0.373480 0.149878 3.836501
v -0.363499 0.149878 3.826519
v -0.357090 0.149878 3.813942
v -0.354882 0.149878 3.800000
v -0.357090 0.228055 3.786058
v -0.363499 0.228055 3.773480
v -0.373480 0.228055 3.763499
v -0.386058 0.228055 3.757090
v -0.400000 0.228055 3.754882
v -0.413942 0.228055 3.757090
v -0.426520 0.228055 3.763499
v -0.436501 0.228055 3.773480
v -0.442910 0.228055 3.786058
v -0.445118 0.228055 3.800000
v -0.442910 0.228055 3.813942
v -0.436501 0.228055 3.826519
v -0.426520 0.228055 3.836501
v -0.413942 0.228055 3.842910
v -0.400000 0.228055 3.845118
v -0.386058 0.228055 3.842910
v -0.373480 0.228055 3.836501
v -0.363499 0.228055 3.826519
v -0.357090 0.228055 3.813942
v -0.354882 0.228055 3.800000
v -0.400000 0.149878 3.800000
v -0.400000 0.256998 3.800000
v -0.404937 0.002808 3.839179
v -0.395063 0.002808 3.839179
v -0.404937 0.149877 3.839179
v -0.395063 0.149877 3.839179
v -0.404937 0.149877 3.829305
v -0.395063 0.149877 3.829305
v -0.404937 0.002808 3.829305
v -0.395063 0.002808 3.829305
v -0.431462 0.002808 3.776135
v -0.436398 0.002808 3.784686
v -0.431462 0.149877 3.776135
v -0.436398 0.149877 3.784686
v -0.422911 0.149877 3.781072
v -0.427848 0.149877 3.789623
v -0.422911 0.002808 3.781072
v -0.427848 0.002808 3.789623
v -0.363602 0.002808 3.784686
v -0.368538 0.002808 3.776135
v -0.363602 0.149877 3.784686
v -0.368538 0.149877 3.776135
v -0.372152 0.149877 3.789623
v -0.377089 0.149877 3.781072
v -0.372152 0.002808 3.789623
v -0.377089 0.002808 3.781072
vt 0.623345 0.200273
vt 0.631528 0.192658
vt 0.636958 0.182886
vt 0.639102 0.171914
vt 0.637750 0.160817
vt 0.633036 0.150681
vt 0.625420 0.142498
vt 0.615648 0.137068
vt 0.604677 0.134925
vt 0.593580 0.136276
vt 0.583444 0.140990
vt 0.575260 0.148606
vt 0.569831 0.158378
vt 0.567687 0.169349
vt 0.569038 0.180446
vt 0.573753 0.190582
vt 0.581368 0.198766
vt 0.591140 0.204195
vt 0.602112 0.206339
vt 0.613209 0.204988
vt 0.561187 0.152961
vt 0.561972 0.155710
vt 0.562757 0.158458
vt 0.563542 0.161207
vt 0.564327 0.163955
vt 0.565113 0.166704
vt 0.565898 0.169452
vt 0.566683 0.172201
vt 0.567468 0.174949
vt 0.568253 0.177698
vt 0.569038 0.180446
vt 0.569824 0.183194
vt 0.570609 0.185943
vt 0.571394 0.188691
vt 0.572179 0.191440
vt 0.572964 0.194188
vt 0.573749 0.196937
vt 0.574534 0.199685
vt 0.575319 0.202434
vt 0.576105 0.205182
vt 0.576890 0.207931
vt 0.478526 0.176575
vt 0.479311 0.179323
vt 0.480096 0.182072
vt 0.480881 0.184820
vt 0.481666 0.187568
vt 0.482452 0.190317
vt 0.483237 0.193065
vt 0.484022 0.195814
vt 0.484807 0.198562
vt 0.485592 0.201311
vt 0.486377 0.204059
vt 0.487162 0.206808
vt 0.487948 0.209556
vt 0.488733 0.212305
vt 0.489518 0.215053
vt 0.490303 0.217802
vt 0.491088 0.220550
vt 0.491873 0.223299
vt 0.492658 0.226047
vt 0.493444 0.228796
vt 0.494229 0.231544
vt 0.472179 0.243456
vt 0.480362 0.235840
vt 0.485791 0.226069
vt 0.487935 0.215097
vt 0.486584 0.204000
vt 0.481870 0.193864
vt 0.474254 0.185681
vt 0.464482 0.180251
vt 0.453511 0.178107
vt 0.442414 0.179459
vt 0.432278 0.184173
vt 0.424094 0.191789
vt 0.418665 0.201561
vt 0.416521 0.212532
vt 0.417872 0.223629
vt 0.422586 0.233765
vt 0.430202 0.241948
vt 0.439974 0.247378
vt 0.450945 0.249522
vt 0.462042 0.248171
vt 0.604769 0.170239
vt 0.453602 0.213422
vt 0.897619 0.644296
vt 0.962673 0.644296
vt 0.962673 0.709350
vt 0.897619 0.709350
vt 0.962673 0.774403
vt 0.897619 0.774403
vt 0.962673 0.839457
vt 0.897619 0.839457
vt 0.962673 0.904511
vt 0.897619 0.904511
vt 1.027727 0.644296
vt 1.027727 0.709350
vt 0.832565 0.644296
vt 0.832565 0.709350
vt 0.897619 0.644296
vt 0.962673 0.644296
vt 0.962673 0.709350
vt 0.897619 0.709350
vt 0.962673 0.774403
vt 0.897619 0.774403
vt 0.962673 0.839457
vt 0.897619 0.839457
vt 0.962673 0.904511
vt 0.897619 0.904511
vt 1.027727 0.644296
vt 1.027727 0.709350
vt 0.832565 0.644296
vt 0.832565 0.709350
vt 0.897619 0.644296
vt 0.962673 0.644296
vt 0.962673 0.709350
vt 0.897619 0.709350
vt 0.962673 0.774403
vt 0.897619 0.774403
vt 0.962673 0.839457
vt 0.897619 0.839457
vt 0.962673 0.904511
vt 0.897619 0.904511
vt 1.027727 0.644296
vt 1.027727 0.709350
vt 0.832565 0.644296
vt 0.832565 0.709350
vn 0.951058 0.000000 -0.309011
vn 0.809022 0.000000 -0.587779
vn 0.951054 0.000000 -0.309026
vn 0.809013 0.000000 -0.587791
vn 0.587799 0.000000 -0.809007
vn 0.587783 0.000000 -0.809019
vn 0.309020 0.000000 -0.951056
vn 0.309020 0.000000 -0.951056
vn -0.000024 0.000000 -1.000000
vn 0.000024 0.000000 -1.000000
vn -0.309045 0.000000 -0.951047
vn -0.309001 0.000000 -0.951062
vn -0.587797 0.000000 -0.809009
vn -0.587781 0.000000 -0.809020
vn -0.809013 0.000000 -0.587791
vn -0.809022 0.000000 -0.587779
vn -0.951054 0.000000 -0.309026
vn -0.951058 0.000000 -0.309011
vn -1.000000 0.000000 0.000000
vn -1.000000 0.000000 -0.000000
vn -0.951056 0.000000 0.309019
vn -0.951056 0.000000 0.309019
vn -0.809013 0.000000 0.587791
vn -0.809013 0.000000 0.587791
vn -0.587799 0.000000 0.809007
vn -0.587783 0.000000 0.809019
vn -0.309045 0.000000 0.951047
vn -0.309001 0.000000 0.951062
vn -0.000024 0.000000 1.000000
vn 0.000024 0.000000 1.000000
vn 0.309001 0.000000 0.951062
vn 0.309045 0.000000 0.951047
vn 0.587783 0.000000 0.809019
vn 0.587799 0.000000 0.809007
vn 0.809014 0.000000 0.587790
vn 0.809014 0.000000 0.587790
vn 0.951056 0.000000 0.309019
vn 0.951056 0.000000 0.309019
vn 1.000000 0.000000 0.000001
vn 1.000000 0.000000 0.000001
vn 0.000000 -1.000000 0.000000
vn 0.000000 -1.000000 0.000000
vn 0.000000 -1.000000 0.000000
vn 0.000000 -1.000000 0.000000
vn 0.000000 -1.000000 0.000000
vn 0.000000 -1.000000 0.000000
vn 0.000000 -1.000000 0.000000
vn 0.000000 -1.000000 0.000000
vn 0.000000 -1.000000 0.000000
vn 0.000000 -1.000000 0.000000
vn 0.000000 -1.000000 0.000000
vn 0.000000 -1.000000 0.000000
vn 0.000000 -1.000000 0.000000
vn 0.000000 -1.000000 0.000000
vn 0.000000 -1.000000 0.000000
vn 0.000000 -1.000000 0.000000
vn 0.000000 -1.000000 0.000000
vn 0.000000 -1.000000 0.000000
vn 0.000000 -1.000000 0.000000
vn 0.000000 -1.000000 0.000000
vn 0.000000 -1.000000 0.000000
vn 0.513516 0.841701 -0.166854
vn 0.436837 0.841694 -0.317372
vn 0.000000 1.000000 -0.000000
vn 0.317383 0.841697 -0.436823
vn 0.166848 0.841701 -0.513519
vn 0.000000 0.841700 -0.539945
vn -0.166857 0.841699 -0.513519
vn -0.317385 0.841695 -0.436825
vn -0.436831 0.841696 -0.317374
vn -0.513516 0.841702 -0.166854
vn -0.539942 0.841702 0.000000
vn -0.513516 0.841701 0.166854
vn -0.436831 0.841696 0.317374
vn -0.317385 0.841695 0.436825
vn -0.166857 0.841699 0.513519
vn 0.000000 0.841700 0.539945
vn 0.166857 0.841700 0.513518
vn 0.317384 0.841696 0.436824
vn 0.436831 0.841696 0.317373
vn 0.513516 0.841701 0.166853
vn 0.539942 0.841702 -0.000000
vn 0.000000 0.000000 1.000000
vn 0.000000 0.000000 1.000000
vn 0.000000 0.000000 1.000000
vn 0.000000 0.000000 1.000000
vn 0.000000 1.000000 0.000000
vn 0.000000 1.000000 0.000000
vn 0.000000 1.000000 0.000000
vn 0.000000 1.000000 0.000000
vn 0.000000 0.000000 -1.000000
vn 0.000000 0.000000 -1.000000
vn 0.000000 0.000000 -1.000000
vn 0.000000 0.000000 -1.000000
vn 0.000000 -1.000000 0.000000
vn 0.000000 -1.000000 0.000000
vn 0.000000 -1.000000 0.000000
vn 0.000000 -1.000000 0.000000
vn 1.000000 0.000000 0.000000
vn 1.000000 0.000000 0.000000
vn 1.000000 0.000000 0.000000
vn 1.000000 0.000000 0.000000
vn -1.000000 0.000000 0.000000
vn -1.000000 0.000000 0.000000
vn -1.000000 0.000000 0.000000
vn -1.000000 0.000000 0.000000
vn -0.866019 0.000000 -0.500012
vn -0.866019 0.000000 -0.500012
vn -0.866019 0.000000 -0.500012
vn -0.866019 0.000000 -0.500012
vn 0.000000 1.000000 0.000000
vn 0.000000 1.000000 0.000000
vn 0.000000 1.000000 0.000000
vn 0.000000 1.000000 0.000000
vn 0.866039 0.000000 0.499976
vn 0.866038 0.000000 0.499978
vn 0.866019 0.000000 0.500010
vn 0.866019 0.000000 0.500012
vn 0.000000 -1.000000 0.000000
vn 0.000000 -1.000000 0.000000
vn 0.000000 -1.000000 0.000000
vn 0.000000 -1.000000 0.000000
vn -0.500020 0.000000 0.866014
vn -0.500020 0.000000 0.866014
vn -0.500020 0.000000 0.866014
vn -0.500020 0.000000 0.866014
vn 0.499958 0.000000 -0.866050
vn 0.499961 0.000000 -0.866048
vn 0.500017 0.000000 -0.866016
vn 0.500020 0.000000 -0.866014
vn 0.866019 0.000000 -0.500012
vn 0.866019 0.000000 -0.500012
vn 0.866019 0.000000 -0.500012
vn 0.866019 0.000000 -0.500012
vn 0.000000 1.000000 0.000000
vn 0.000000 1.000000 0.000000
vn 0.000000 1.000000 0.000000
vn 0.000000 1.000000 0.000000
vn -0.866019 0.000000 0.500012
vn -0.866019 0.000000 0.500010
vn -0.866038 0.000000 0.499978
vn -0.866039 0.000000 0.499976
vn 0.000000 -1.000000 0.000000
vn 0.000000 -1.000000 0.000000
vn 0.000000 -1.000000 0.000000
vn 0.000000 -1.000000 -0.000000
vn -0.500020 0.000000 -0.866014
vn -0.500017 0.000000 -0.866016
vn -0.499961 0.000000 -0.866048
vn -0.499958 0.000000 -0.866050
vn 0.500020 0.000000 0.866014
vn 0.500020 0.000000 0.866014
vn 0.500020 0.000000 0.866014
vn 0.500020 0.000000 0.866014
s 1
g polySurface107
usemtl lambert3SG
f 1/21/1 2/22/2 21/42/3
f 21/42/3 2/22/2 22/43/4
f 2/22/2 3/23/5 22/43/4
f 22/43/4 3/23/5 23/44/6
f 3/23/5 4/24/7 23/44/6
f 23/44/6 4/24/7 24/45/8
f 4/24/7 5/25/9 24/45/8
f 24/45/8 5/25/9 25/46/10
f 5/25/9 6/26/11 25/46/10
f 25/46/10 6/26/11 26/47/12
f 6/26/11 7/27/13 26/47/12
f 26/47/12 7/27/13 27/48/14
f 7/27/13 8/28/15 27/48/14
f 27/48/14 8/28/15 28/49/16
f 8/28/15 9/29/17 28/49/16
f 28/49/16 9/29/17 29/50/18
f 9/29/17 10/30/19 29/50/18
f 29/50/18 10/30/19 30/51/20
f 10/30/19 11/31/21 30/51/20
f 30/51/20 11/31/21 31/52/22
f 11/31/21 12/32/23 31/52/22
f 31/52/22 12/32/23 32/53/24
f 12/32/23 13/33/25 32/53/24
f 32/53/24 13/33/25 33/54/26
f 13/33/25 14/34/27 33/54/26
f 33/54/26 14/34/27 34/55/28
f 14/34/27 15/35/29 34/55/28
f 34/55/28 15/35/29 35/56/30
f 15/35/29 16/36/31 35/56/30
f 35/56/30 16/36/31 36/57/32
f 16/36/31 17/37/33 36/57/32
f 36/57/32 17/37/33 37/58/34
f 17/37/33 18/38/35 37/58/34
f 37/58/34 18/38/35 38/59/36
f 18/38/35 19/39/37 38/59/36
f 38/59/36 19/39/37 39/60/38
f 19/39/37 20/40/39 39/60/38
f 39/60/38 20/40/39 40/61/40
f 20/40/39 1/41/1 40/61/40
f 40/61/40 1/41/1 21/62/3
s 2
f 2/2/41 1/1/42 41/83/43
f 3/3/44 2/2/41 41/83/43
f 4/4/45 3/3/44 41/83/43
f 5/5/46 4/4/45 41/83/43
f 6/6/47 5/5/46 41/83/43
f 7/7/48 6/6/47 41/83/43
f 8/8/49 7/7/48 41/83/43
f 9/9/50 8/8/49 41/83/43
f 10/10/51 9/9/50 41/83/43
f 11/11/52 10/10/51 41/83/43
f 12/12/53 11/11/52 41/83/43
f 13/13/54 12/12/53 41/83/43
f 14/14/55 13/13/54 41/83/43
f 15/15/56 14/14/55 41/83/43
f 16/16/57 15/15/56 41/83/43
f 17/17/58 16/16/57 41/83/43
f 18/18/59 17/17/58 41/83/43
f 19/19/60 18/18/59 41/83/43
f 20/20/61 19/19/60 41/83/43
f 1/1/42 20/20/61 41/83/43
s 3
f 21/81/62 22/80/63 42/84/64
f 22/80/63 23/79/65 42/84/64
f 23/79/65 24/78/66 42/84/64
f 24/78/66 25/77/67 42/84/64
f 25/77/67 26/76/68 42/84/64
f 26/76/68 27/75/69 42/84/64
f 27/75/69 28/74/70 42/84/64
f 28/74/70 29/73/71 42/84/64
f 29/73/71 30/72/72 42/84/64
f 30/72/72 31/71/73 42/84/64
f 31/71/73 32/70/74 42/84/64
f 32/70/74 33/69/75 42/84/64
f 33/69/75 34/68/76 42/84/64
f 34/68/76 35/67/77 42/84/64
f 35/67/77 36/66/78 42/84/64
f 36/66/78 37/65/79 42/84/64
f 37/65/79 38/64/80 42/84/64
f 38/64/80 39/63/81 42/84/64
f 39/63/81 40/82/82 42/84/64
f 40/82/82 21/81/62 42/84/64
s 4
f 43/85/83 44/86/84 45/88/85
f 45/88/85 44/86/84 46/87/86
s 5
f 45/88/87 46/87/88 47/90/89
f 47/90/89 46/87/88 48/89/90
s 6
f 47/90/91 48/89/92 49/92/93
f 49/92/93 48/89/92 50/91/94
s 7
f 49/92/95 50/91/96 43/94/97
f 43/94/97 50/91/96 44/93/98
s 8
f 44/86/99 50/95/100 46/87/101
f 46/87/101 50/95/100 48/96/102
s 9
f 49/97/103 43/85/104 47/98/105
f 47/98/105 43/85/104 45/88/106
s 10
f 51/99/107 52/100/108 53/102/109
f 53/102/109 52/100/108 54/101/110
s 11
f 53/102/111 54/101/112 55/104/113
f 55/104/113 54/101/112 56/103/114
s 12
f 55/104/115 56/103/116 57/106/117
f 57/106/117 56/103/116 58/105/118
s 13
f 57/106/119 58/105/120 51/108/121
f 51/108/121 58/105/120 52/107/122
s 14
f 52/100/123 58/109/124 54/101/125
f 54/101/125 58/109/124 56/110/126
s 15
f 57/111/127 51/99/128 55/112/129
f 55/112/129 51/99/128 53/102/130
s 16
f 59/113/131 60/114/132 61/116/133
f 61/116/133 60/114/132 62/115/134
s 17
f 61/116/135 62/115/136 63/118/137
f 63/118/137 62/115/136 64/117/138
s 18
f 63/118/139 64/117/140 65/120/141
f 65/120/141 64/117/140 66/119/142
s 19
f 65/120/143 66/119/144 59/122/145
f 59/122/145 66/119/144 60/121/146
s 20
f 60/114/147 66/123/148 62/115/149
f 62/115/149 66/123/148 64/124/150
s 21
f 65/125/151 59/113/152 63/126/153
f 63/126/153 59/113/152 61/116/154
