# This file uses centimeters as units for non-parametric coordinates.

mtllib tree.mtl
g default
v 1.988447 0.000000 4.011553
v 2.011553 0.000000 4.011553
v 1.988447 0.046212 4.011553
v 2.011553 0.046212 4.011553
v 1.988447 0.046212 3.988447
v 2.011553 0.046212 3.988447
v 1.988447 0.000000 3.988447
v 2.011553 0.000000 3.988447
v 2.014867 0.046212 3.954243
v 1.961077 0.046212 3.971721
v 1.961077 0.046212 4.028279
v 2.014867 0.046212 4.045756
v 2.048111 0.046212 4.000000
v 2.000000 0.162606 4.000000
vt 0.521710 0.729605
vt 0.570993 0.729605
vt 0.521710 0.778889
vt 0.570993 0.778889
vt 0.521710 0.828172
vt 0.570993 0.828172
vt 0.521710 0.877455
vt 0.570993 0.877455
vt 0.521710 0.926738
vt 0.570993 0.926738
vt 0.620277 0.729605
vt 0.620277 0.778889
vt 0.472427 0.729605
vt 0.472427 0.778889
vt 0.561581 0.732018
vt 0.595635 0.778889
vt 0.561581 0.825760
vt 0.506481 0.807857
vt 0.506481 0.749921
vt 0.428699 0.606390
vt 0.485401 0.606390
vt 0.570455 0.889902
vt 0.542104 0.606390
vt 0.598806 0.606390
vt 0.655509 0.606390
vt 0.712211 0.606390
vn 0.000000 0.000000 1.000000
vn 0.000000 0.000000 1.000000
vn 0.000000 0.000000 1.000000
vn 0.000000 0.000000 1.000000
vn 0.000000 1.000000 0.000000
vn 0.000000 1.000000 0.000000
vn 0.000000 1.000000 0.000000
vn 0.000000 1.000000 0.000000
vn 0.000000 0.000000 -1.000000
vn 0.000000 0.000000 -1.000000
vn 0.000000 0.000000 -1.000000
vn 0.000000 0.000000 -1.000000
vn 0.000000 -1.000000 0.000000
vn 0.000000 -1.000000 0.000000
vn 0.000000 -1.000000 0.000000
vn 0.000000 -1.000000 0.000000
vn 1.000000 0.000000 0.000000
vn 1.000000 0.000000 0.000000
vn 1.000000 0.000000 0.000000
vn 1.000000 0.000000 0.000000
vn -1.000000 0.000000 0.000000
vn -1.000000 0.000000 0.000000
vn -1.000000 0.000000 0.000000
vn -1.000000 0.000000 0.000000
vn 0.000000 -1.000000 0.000000
vn 0.000000 -1.000000 0.000000
vn 0.000000 -1.000000 0.000000
vn 0.000000 -1.000000 0.000000
vn 0.000000 -1.000000 0.000000
vn -0.293061 0.317143 -0.901962
vn -0.293061 0.317143 -0.901962
vn -0.293061 0.317143 -0.901962
vn -0.948377 0.317145 0.000000
vn -0.948377 0.317145 0.000000
vn -0.948377 0.317145 0.000000
vn -0.293078 0.317139 0.901958
vn -0.293078 0.317139 0.901958
vn -0.293078 0.317139 0.901958
vn 0.767253 0.317143 0.557443
vn 0.767253 0.317143 0.557443
vn 0.767253 0.317143 0.557443
vn 0.767255 0.317144 -0.557441
vn 0.767255 0.317144 -0.557441
vn 0.767255 0.317144 -0.557441
s 1
g polySurface106
usemtl lambert3SG
f 1/1/1 2/2/2 3/3/3
f 3/3/3 2/2/2 4/4/4
s 2
f 3/3/5 4/4/6 5/5/7
f 5/5/7 4/4/6 6/6/8
s 3
f 5/5/9 6/6/10 7/7/11
f 7/7/11 6/6/10 8/8/12
s 4
f 7/7/13 8/8/14 1/9/15
f 1/9/15 8/8/14 2/10/16
s 5
f 2/2/17 8/11/18 4/4/19
f 4/4/19 8/11/18 6/12/20
s 6
f 7/13/21 1/1/22 5/14/23
f 5/14/23 1/1/22 3/3/24
s 7
f 9/15/25 13/16/26 10/19/27
f 13/16/26 12/17/28 10/19/27
f 12/17/28 11/18/29 10/19/27
s off
f 9/20/30 10/21/31 14/22/32
f 10/21/33 11/23/34 14/22/35
f 11/23/36 12/24/37 14/22/38
f 12/24/39 13/25/40 14/22/41
f 13/25/42 9/26/43 14/22/44
