# This file uses centimeters as units for non-parametric coordinates.

mtllib utility_road_X.mtl
g default
v -1.600000 0.000000 0.100000
v -1.200000 0.000000 0.100000
v -1.600000 0.018612 0.100000
v -1.200000 0.018612 0.100000
v -1.600000 0.018612 -0.100000
v -1.200000 0.018612 -0.100000
v -1.600000 0.000000 -0.100000
v -1.200000 0.000000 -0.100000
v -1.400000 0.000000 -0.100000
v -1.400000 0.018612 -0.100000
v -1.400000 0.018612 0.100000
v -1.400000 0.000000 0.100000
v -1.400000 0.009306 0.100000
v -1.400000 0.018612 0.000000
v -1.400000 0.009306 -0.100000
v -1.200000 0.000000 0.000000
v -1.600000 0.000000 0.000000
v -1.200000 0.009306 -0.100000
v -1.600000 0.009306 -0.100000
v -1.200000 0.018612 0.000000
v -1.600000 0.018612 0.000000
v -1.200000 0.009306 0.100000
v -1.600000 0.009306 0.100000
v -1.300000 0.018612 -0.100000
v -1.500000 0.018612 -0.100000
v -1.300000 0.018612 0.100000
v -1.500000 0.018612 0.100000
v -1.500000 0.000000 -0.200000
v -1.500000 0.000000 -0.100000
v -1.500000 0.018612 -0.200000
v -1.500000 0.018612 -0.100000
v -1.300000 0.018612 -0.200000
v -1.300000 0.018612 -0.100000
v -1.300000 0.000000 -0.200000
v -1.300000 0.000000 -0.100000
v -1.400000 0.000000 -0.100000
v -1.400000 0.000000 -0.200000
v -1.300000 0.009306 -0.100000
v -1.300000 0.009306 -0.200000
v -1.400000 0.018612 0.000000
v -1.400000 0.018612 -0.200000
v -1.500000 0.009306 -0.100000
v -1.500000 0.009306 -0.200000
v -1.300000 0.000000 0.200000
v -1.300000 0.000000 0.100000
v -1.300000 0.018612 0.200000
v -1.300000 0.018612 0.100000
v -1.500000 0.018612 0.200000
v -1.500000 0.018612 0.100000
v -1.500000 0.000000 0.200000
v -1.500000 0.000000 0.100000
v -1.400000 0.000000 0.100000
v -1.400000 0.000000 0.200000
v -1.500000 0.009306 0.100000
v -1.500000 0.009306 0.200000
v -1.400000 0.018612 0.000000
v -1.400000 0.018612 0.200000
v -1.300000 0.009306 0.100000
v -1.300000 0.009306 0.200000
vt -0.979211 0.006930
vt 1.979211 0.006930
vt 1.979211 0.006930
vt -0.979211 0.006930
vt 1.979211 0.993070
vt -0.979211 0.993070
vt 1.979211 0.993070
vt -0.979211 0.993070
vt 0.500000 0.993070
vt 0.500000 0.993070
vt 0.500000 0.006930
vt 0.500000 0.006930
vt 0.500000 0.006930
vt 0.500000 0.500000
vt 0.500000 0.993070
vt 1.979211 0.500000
vt -0.979211 0.500000
vt 1.979211 0.993070
vt -0.979211 0.993070
vt 1.979211 0.500000
vt -0.979211 0.500000
vt 1.979211 0.006930
vt -0.979211 0.006930
vt 1.239606 0.993070
vt -0.239606 0.993070
vt 1.239606 0.006930
vt -0.239606 0.006930
vt -0.979211 0.006930
vt -0.558344 0.006930
vt -0.558344 0.006930
vt -0.979211 0.006930
vt -0.979211 0.006930
vt -0.558344 0.006930
vt -0.139603 0.500000
vt -0.979211 0.500000
vt -0.979211 0.993070
vt -0.558344 0.993070
vt -0.558344 0.993070
vt -0.979211 0.993070
vt -0.979211 0.993070
vt -0.558344 0.993070
vt -0.558344 0.500000
vt -0.979211 0.500000
vt -0.979211 0.006930
vt -0.558344 0.006930
vt -0.558344 0.006930
vt -0.979211 0.006930
vt -0.979211 0.006930
vt -0.558344 0.006930
vt -0.139603 0.500000
vt -0.979211 0.500000
vt -0.979211 0.993070
vt -0.558344 0.993070
vt -0.558344 0.993070
vt -0.979211 0.993070
vt -0.979211 0.993070
vt -0.558344 0.993070
vt -0.558344 0.500000
vt -0.979211 0.500000
vn 0.000000 0.000000 1.000000
vn 0.000000 0.000000 1.000000
vn 0.000000 0.000000 1.000000
vn -0.000000 0.000000 1.000000
vn 0.000000 0.000000 -1.000000
vn 0.000000 0.000000 -1.000000
vn 0.000000 0.000000 -1.000000
vn 0.000000 0.000000 -1.000000
vn 0.000000 0.000000 -1.000000
vn 1.000000 0.000000 0.000000
vn 1.000000 0.000000 0.000000
vn 1.000000 0.000000 0.000000
vn 1.000000 0.000000 0.000000
vn 1.000000 0.000000 0.000000
vn 1.000000 0.000000 0.000000
vn 1.000000 0.000000 0.000000
vn 1.000000 0.000000 0.000000
vn -1.000000 0.000000 0.000000
vn -1.000000 0.000000 0.000000
vn -1.000000 0.000000 0.000000
vn -1.000000 0.000000 0.000000
vn -1.000000 0.000000 0.000000
vn -1.000000 0.000000 0.000000
vn -1.000000 0.000000 0.000000
vn -1.000000 0.000000 0.000000
vn 0.000000 0.000000 -1.000000
vn 0.000000 0.000000 -1.000000
vn 0.000000 0.000000 -1.000000
vn 0.000000 1.000000 0.000000
vn 0.000000 1.000000 0.000000
vn 0.000000 1.000000 0.000000
vn 0.000000 1.000000 0.000000
vn 0.000000 0.000000 1.000000
vn 0.000000 0.000000 1.000000
vn -0.000000 0.000000 1.000000
vn 0.000000 0.000000 1.000000
vn 0.000000 0.000000 1.000000
vn 0.000000 0.000000 -1.000000
vn 0.000000 0.000000 -1.000000
vn 0.000000 0.000000 -1.000000
vn 0.000000 1.000000 -0.000000
vn 0.000000 1.000000 0.000000
vn -0.000000 1.000000 -0.000000
vn 0.000000 1.000000 0.000000
vn 0.000000 0.000000 1.000000
vn 0.000000 0.000002 1.000000
vn 0.000000 1.000000 0.000000
vn 0.000000 1.000000 0.000000
vn -0.000000 1.000000 0.000000
vn -0.000000 1.000000 -0.000000
vn -1.000000 0.000000 0.000000
vn -1.000000 0.000000 0.000000
vn -1.000000 0.000000 0.000000
vn -1.000000 0.000000 0.000000
vn 0.000000 1.000000 0.000000
vn 0.000000 1.000000 0.000000
vn 0.000000 1.000000 0.000000
vn 0.000000 1.000000 0.000000
vn 1.000000 0.000000 0.000000
vn 1.000000 0.000000 0.000000
vn 1.000000 0.000000 0.000000
vn 1.000000 0.000000 0.000000
vn 0.000000 -1.000000 0.000000
vn 0.000000 -1.000000 0.000000
vn 0.000000 -1.000000 0.000000
vn 0.000000 -1.000000 0.000000
vn -0.000000 0.000000 1.000000
vn -0.000000 -0.981095 0.193526
vn -0.000000 0.000000 1.000000
vn -0.000000 0.000000 1.000000
vn -0.000000 0.000000 1.000000
vn 0.173175 -0.930465 0.322872
vn -0.000000 -0.983118 0.182974
vn -0.173175 -0.930465 0.322872
vn 0.000000 0.000000 -1.000000
vn 0.000000 0.000000 -1.000000
vn 0.000000 0.000000 -1.000000
vn 0.000000 0.000000 -1.000000
vn 0.000000 0.000000 -1.000000
vn 0.000000 0.000000 -1.000000
vn 0.000000 0.000000 -1.000000
vn 0.000000 0.000000 -1.000000
vn 0.000000 -1.000000 0.000000
vn 0.000000 -1.000000 0.000000
vn 1.000000 0.000000 0.000000
vn 1.000000 0.000000 0.000000
vn 0.000000 1.000000 0.000000
vn 0.000000 1.000000 0.000000
vn -1.000000 0.000000 0.000000
vn -1.000000 0.000000 0.000000
vn 1.000000 0.000000 0.000000
vn 1.000000 0.000000 0.000000
vn 1.000000 0.000000 0.000000
vn 1.000000 0.000000 0.000000
vn 0.000000 1.000000 0.000000
vn 0.000000 1.000000 0.000000
vn 0.000000 1.000000 0.000000
vn 0.000000 1.000000 0.000000
vn -1.000000 0.000000 0.000000
vn -1.000000 0.000000 0.000000
vn -1.000000 0.000000 0.000000
vn -1.000000 0.000000 0.000000
vn 0.000000 -1.000000 0.000000
vn 0.000000 -1.000000 0.000000
vn 0.000000 -1.000000 0.000000
vn 0.000000 -1.000000 0.000000
vn 0.000000 0.000000 -1.000000
vn 0.000000 -0.981095 -0.193526
vn 0.000000 0.000000 -1.000000
vn 0.000000 0.000000 -1.000000
vn 0.000000 0.000000 -1.000000
vn -0.173174 -0.930465 -0.322871
vn 0.000000 -0.983118 -0.182974
vn 0.173175 -0.930464 -0.322872
vn 0.000000 0.000000 1.000000
vn 0.000000 0.000000 1.000000
vn 0.000000 0.000000 1.000000
vn 0.000000 0.000000 1.000000
vn 0.000000 0.000000 1.000000
vn 0.000000 0.000000 1.000000
vn 0.000000 0.000000 1.000000
vn 0.000000 0.000000 1.000000
vn 0.000000 -1.000000 0.000000
vn 0.000000 -1.000000 0.000000
vn -1.000000 0.000000 0.000000
vn -1.000000 0.000000 0.000000
vn 0.000000 1.000000 0.000000
vn 0.000000 1.000000 0.000000
vn 1.000000 0.000000 0.000000
vn 1.000000 0.000000 0.000000
s 1
g polySurface1
usemtl lambert2SG
f 1/1/1 12/12/2 23/23/3
f 23/23/3 12/12/2 13/13/4
s 2
f 5/6/5 25/25/6 19/19/7
f 19/19/7 25/25/6 15/15/8
f 25/25/6 10/10/9 15/15/8
s 3
f 2/2/10 16/16/11 22/22/12
f 8/7/13 18/18/14 16/16/11
f 6/5/15 20/20/16 18/18/14
f 18/18/14 20/20/16 16/16/11
f 16/16/11 20/20/16 22/22/12
f 20/20/16 4/3/17 22/22/12
s 5
f 7/8/18 17/17/19 19/19/20
f 1/1/21 23/23/22 17/17/19
f 3/4/23 21/21/24 23/23/22
f 23/23/22 21/21/24 17/17/19
f 17/17/19 21/21/24 19/19/20
f 21/21/24 5/6/25 19/19/20
s 2
f 18/18/26 15/15/8 6/5/27
f 6/5/27 15/15/8 24/24/28
f 15/15/8 10/10/9 24/24/28
s 8
f 14/14/29 26/26/30 20/20/31
f 20/20/31 26/26/30 4/3/32
s 1
f 22/22/33 13/13/4 2/2/34
f 2/2/34 13/13/4 12/12/2
f 11/11/35 13/13/4 26/26/36
f 13/13/4 22/22/33 26/26/36
f 22/22/33 4/3/37 26/26/36
s 2
f 9/9/38 15/15/8 8/7/39
f 8/7/39 15/15/8 18/18/26
f 19/19/7 15/15/8 7/8/40
f 7/8/40 15/15/8 9/9/38
s 12
f 14/14/41 25/25/42 21/21/43
f 21/21/43 25/25/42 5/6/44
s 1
f 23/23/3 13/13/4 3/4/45
f 3/4/45 13/13/4 27/27/46
f 13/13/4 11/11/35 27/27/46
s 8
f 14/14/29 20/20/31 24/24/47
f 24/24/47 20/20/31 6/5/48
s 12
f 3/4/49 27/27/50 21/21/43
f 21/21/43 27/27/50 14/14/41
s 13
f 28/28/51 29/29/52 43/31/53
f 43/31/53 29/29/52 42/30/54
s 14
f 30/32/55 31/33/56 41/35/57
f 41/35/57 31/33/56 40/34/58
s 15
f 32/36/59 33/37/60 39/39/61
f 39/39/61 33/37/60 38/38/62
s 16
f 34/40/63 35/41/64 37/43/65
f 37/43/65 35/41/64 36/42/66
s 17
f 29/29/67 36/42/68 42/30/69
f 35/41/70 38/38/71 36/42/68
f 38/38/71 33/37/72 36/42/68
f 33/37/72 40/34/73 36/42/68
f 42/30/69 36/42/68 31/33/74
f 36/42/68 40/34/73 31/33/74
s 19
f 34/40/75 37/43/76 39/39/77
f 28/28/78 43/31/79 37/43/76
f 30/32/80 41/35/81 43/31/79
f 43/31/79 41/35/81 37/43/76
f 37/43/76 41/35/81 39/39/77
f 41/35/81 32/36/82 39/39/77
s 16
f 37/43/65 36/42/66 28/28/83
f 28/28/83 36/42/66 29/29/84
s 15
f 39/39/61 38/38/62 34/40/85
f 34/40/85 38/38/62 35/41/86
s 14
f 40/34/58 33/37/87 41/35/57
f 41/35/57 33/37/87 32/36/88
s 13
f 43/31/53 42/30/54 30/32/89
f 30/32/89 42/30/54 31/33/90
s 21
f 44/44/91 45/45/92 59/47/93
f 59/47/93 45/45/92 58/46/94
s 22
f 46/48/95 47/49/96 57/51/97
f 57/51/97 47/49/96 56/50/98
s 23
f 48/52/99 49/53/100 55/55/101
f 55/55/101 49/53/100 54/54/102
s 24
f 50/56/103 51/57/104 53/59/105
f 53/59/105 51/57/104 52/58/106
s 25
f 45/45/107 52/58/108 58/46/109
f 51/57/110 54/54/111 52/58/108
f 54/54/111 49/53/112 52/58/108
f 49/53/112 56/50/113 52/58/108
f 58/46/109 52/58/108 47/49/114
f 52/58/108 56/50/113 47/49/114
s 27
f 50/56/115 53/59/116 55/55/117
f 44/44/118 59/47/119 53/59/116
f 46/48/120 57/51/121 59/47/119
f 59/47/119 57/51/121 53/59/116
f 53/59/116 57/51/121 55/55/117
f 57/51/121 48/52/122 55/55/117
s 24
f 53/59/105 52/58/106 44/44/123
f 44/44/123 52/58/106 45/45/124
s 23
f 55/55/101 54/54/102 50/56/125
f 50/56/125 54/54/102 51/57/126
s 22
f 56/50/98 49/53/127 57/51/97
f 57/51/97 49/53/127 48/52/128
s 21
f 59/47/93 58/46/94 46/48/129
f 46/48/129 58/46/94 47/49/130
