# This file uses centimeters as units for non-parametric coordinates.

mtllib utility_road_corner.mtl
g default
v -0.104894 0.000000 0.169098
v -0.119098 0.000000 0.141221
v -0.141221 0.000000 0.119098
v -0.169098 0.000000 0.104894
v -0.200000 0.000000 0.100000
v -0.100000 0.000000 0.200000
v -0.104894 0.018612 0.169098
v -0.119098 0.018612 0.141221
v -0.141221 0.018612 0.119098
v -0.169098 0.018612 0.104894
v -0.200000 0.018612 0.100000
v -0.100000 0.018612 0.200000
v 0.085635 0.000000 0.107192
v 0.042975 0.000000 0.023468
v 0.042975 0.018612 0.023468
v 0.085635 0.018612 0.107192
v -0.023468 0.000000 -0.042975
v -0.023468 0.018612 -0.042975
v -0.107192 0.000000 -0.085635
v -0.107192 0.018612 -0.085635
v -0.200000 0.000000 -0.100334
v -0.200000 0.018612 -0.100334
v 0.100334 0.000000 0.200000
v 0.100334 0.018612 0.200000
vt 0.375000 0.312500
vt 0.387500 0.312500
vt 0.400000 0.312500
vt 0.412500 0.312500
vt 0.425000 0.312500
vt 0.612500 0.312500
vt 0.625000 0.312500
vt 0.579604 -0.007608
vt 0.420598 -0.008068
vt 0.706093 -0.008068
vt -0.081700 -0.008068
vt 0.425000 0.688440
vt 0.612500 0.688440
vt 0.650282 -0.008068
vt 0.375000 0.312500
vt 0.387500 0.312500
vt 0.387500 0.688440
vt 0.375000 0.688440
vt 0.400000 0.312500
vt 0.400000 0.688440
vt 0.412500 0.312500
vt 0.412500 0.688440
vt 0.425000 0.312500
vt 0.425000 0.688440
vt 0.612500 0.312500
vt 0.625000 0.312500
vt 0.625000 0.688440
vt 0.612500 0.688440
vt 0.375000 0.312500
vt 0.387500 0.312500
vt 0.387500 0.688440
vt 0.375000 0.688440
vt 0.400000 0.312500
vt 0.400000 0.688440
vt 0.412500 0.312500
vt 0.412500 0.688440
vt 0.425000 0.312500
vt 0.425000 0.688440
vt 0.612500 0.312500
vt 0.625000 0.312500
vt 0.625000 0.688440
vt 0.612500 0.688440
vt 0.581591 -0.008068
vt 0.740597 -0.007608
vt 0.896962 0.998450
vt 0.419414 0.997070
vt 0.077306 -0.007608
vt 0.233670 0.998450
vt -0.243877 0.997070
vt 0.865098 -0.007608
vt 1.021463 0.998450
vt 0.543915 0.997070
vt 0.735969 0.998450
vt 0.258421 0.997070
vt 0.809287 -0.007608
vt 0.965652 0.998450
vt 0.488104 0.997070
vn 0.891006 0.000000 -0.453992
vn 0.891006 0.000000 -0.453992
vn 0.891006 0.000000 -0.453992
vn 0.891006 0.000000 -0.453992
vn 0.707107 0.000000 -0.707107
vn 0.707107 0.000000 -0.707107
vn 0.707107 0.000000 -0.707107
vn 0.707107 0.000000 -0.707107
vn 0.453992 0.000000 -0.891006
vn 0.453992 0.000000 -0.891006
vn 0.453992 0.000000 -0.891006
vn 0.453992 0.000000 -0.891006
vn 0.156433 0.000000 -0.987689
vn 0.156433 0.000000 -0.987689
vn 0.156433 0.000000 -0.987689
vn 0.156433 0.000000 -0.987689
vn 0.987689 0.000000 -0.156432
vn 0.987689 0.000000 -0.156432
vn 0.987689 0.000000 -0.156432
vn 0.987689 0.000000 -0.156432
vn -0.891007 0.000000 0.453990
vn -0.891007 0.000000 0.453990
vn -0.891007 0.000000 0.453990
vn -0.891007 0.000000 0.453990
vn -0.707107 0.000000 0.707107
vn -0.707107 0.000000 0.707107
vn -0.707107 0.000000 0.707107
vn -0.707107 0.000000 0.707107
vn -0.453990 0.000000 0.891007
vn -0.453990 0.000000 0.891007
vn -0.453991 0.000000 0.891007
vn -0.453991 0.000000 0.891006
vn -0.156434 0.000000 0.987688
vn -0.156434 0.000000 0.987688
vn -0.156434 0.000000 0.987688
vn -0.156434 0.000000 0.987688
vn -0.987689 0.000000 0.156433
vn -0.987689 0.000000 0.156432
vn -0.987689 0.000000 0.156432
vn -0.987689 0.000000 0.156432
vn 0.000000 -1.000000 0.000000
vn 0.000000 -1.000000 0.000000
vn 0.000000 -1.000000 0.000000
vn 0.000000 -1.000000 0.000000
vn -0.000000 1.000000 0.000000
vn -0.000000 1.000000 0.000000
vn -0.000000 1.000000 -0.000000
vn -0.000000 1.000000 -0.000000
vn 0.000000 -1.000000 0.000000
vn 0.000000 -1.000000 0.000000
vn 0.000000 -1.000000 0.000000
vn 0.000000 -1.000000 0.000000
vn -0.000000 1.000000 0.000000
vn -0.000000 1.000000 0.000000
vn -0.000000 1.000000 0.000000
vn -0.000000 1.000000 0.000000
vn 0.000000 -1.000000 0.000000
vn 0.000000 -1.000000 0.000000
vn 0.000000 -1.000000 0.000000
vn 0.000000 -1.000000 0.000000
vn -0.000000 1.000000 0.000000
vn -0.000000 1.000000 0.000000
vn -0.000000 1.000000 0.000000
vn -0.000000 1.000000 0.000000
vn 0.000000 -1.000000 0.000000
vn 0.000000 -1.000000 0.000000
vn 0.000000 -1.000000 0.000000
vn 0.000000 -1.000000 0.000000
vn -1.000000 0.000000 0.000000
vn -1.000000 0.000000 0.000000
vn -1.000000 0.000000 0.000000
vn -1.000000 0.000000 0.000000
vn -0.000000 1.000000 0.000000
vn -0.000000 1.000000 0.000000
vn -0.000000 1.000000 0.000000
vn -0.000000 1.000000 0.000000
vn 0.000000 -1.000000 0.000000
vn 0.000000 -1.000000 0.000000
vn 0.000000 -1.000000 0.000000
vn 0.000000 -1.000000 0.000000
vn -0.000000 1.000000 0.000000
vn -0.000000 1.000000 0.000000
vn -0.000000 1.000000 0.000000
vn -0.000000 1.000000 0.000000
vn 0.000000 0.000000 1.000000
vn 0.000000 0.000000 1.000000
vn 0.000000 0.000000 1.000000
vn 0.000000 0.000000 1.000000
s 1
g pCylinder1
usemtl lambert2SG
f 13/29/1 14/30/2 16/32/3
f 16/32/3 14/30/2 15/31/4
s 2
f 14/30/5 17/33/6 15/31/7
f 15/31/7 17/33/6 18/34/8
s 3
f 17/33/9 19/35/10 18/34/11
f 18/34/11 19/35/10 20/36/12
s 4
f 19/35/13 21/37/14 20/36/15
f 20/36/15 21/37/14 22/38/16
s 5
f 23/39/17 13/40/18 24/42/19
f 24/42/19 13/40/18 16/41/20
s 6
f 1/15/21 7/18/22 2/16/23
f 2/16/23 7/18/22 8/17/24
s 7
f 2/16/25 8/17/26 3/19/27
f 3/19/27 8/17/26 9/20/28
s 8
f 3/19/29 9/20/30 4/21/31
f 4/21/31 9/20/30 10/22/32
s 9
f 4/21/33 10/22/34 5/23/35
f 5/23/35 10/22/34 11/24/36
s 10
f 6/25/37 12/28/38 1/26/39
f 1/26/39 12/28/38 7/27/40
s 11
f 1/1/41 2/2/42 13/29/43
f 13/29/43 2/2/42 14/30/44
s 12
f 8/9/45 7/8/46 15/54/47
f 15/54/47 7/8/46 16/53/48
s 13
f 2/2/49 3/3/50 14/30/51
f 14/30/51 3/3/50 17/33/52
s 14
f 9/10/53 8/50/54 18/52/55
f 18/52/55 8/50/54 15/51/56
s 15
f 3/3/57 4/4/58 17/33/59
f 17/33/59 4/4/58 19/35/60
s 16
f 10/11/61 9/47/62 20/49/63
f 20/49/63 9/47/62 18/48/64
s 17
f 4/4/65 5/5/66 19/35/67
f 19/35/67 5/5/66 21/37/68
s 18
f 5/5/69 11/12/70 21/37/71
f 21/37/71 11/12/70 22/38/72
s 19
f 11/43/73 10/44/74 22/46/75
f 22/46/75 10/44/74 20/45/76
s 20
f 6/6/77 1/7/78 23/39/79
f 23/39/79 1/7/78 13/40/80
s 21
f 7/14/81 12/55/82 16/57/83
f 16/57/83 12/55/82 24/56/84
s 22
f 12/13/85 6/6/86 24/42/87
f 24/42/87 6/6/86 23/39/88
