# This file uses centimeters as units for non-parametric coordinates.

mtllib utiltiy_rubble_edge.mtl
g default
v 1.985539 -0.059751 3.129187
v 1.925655 -0.049485 3.210169
v 2.001447 -0.005191 3.260599
v 2.061331 -0.015457 3.179617
v 1.958794 0.071060 3.156110
v 1.990912 -0.020711 3.069839
v 1.939219 -0.027311 3.138348
v 2.007948 -0.027702 3.190170
v 2.059641 -0.021101 3.121660
v 1.993584 0.112753 3.138789
v 1.971590 -0.089788 3.074432
v 1.986010 -0.050871 3.149843
v 2.045233 -0.000702 3.112628
v 2.030813 -0.039619 3.037217
v 1.911420 0.047504 3.064213
v 1.940905 -0.047176 3.057987
v 1.942448 -0.030684 3.142455
v 2.027589 -0.043314 3.143365
v 2.026045 -0.059806 3.058897
v 2.004304 0.088060 3.074282
v 1.972873 -0.070880 3.011665
v 1.926535 -0.037666 3.055304
v 1.974620 -0.040530 3.108541
v 2.020958 -0.073744 3.064903
v 2.038019 0.099282 3.010390
v 1.998154 -0.029747 3.162935
v 1.941118 -0.036153 3.219233
v 1.997536 -0.035195 3.276501
v 2.054572 -0.028789 3.220203
v 1.991854 0.059247 3.224085
v 1.973667 -0.056104 2.939303
v 1.913385 -0.058918 3.020591
v 1.987741 -0.019818 3.077086
v 2.048023 -0.017003 2.995799
v 1.945463 0.061824 2.985516
v 1.985614 -0.057034 2.921330
v 1.940488 -0.018883 2.983920
v 2.007538 -0.027099 3.037269
v 2.052663 -0.065251 2.974679
v 2.043845 0.080368 2.938748
v 1.985711 -0.057034 2.659050
v 1.940585 -0.018883 2.721640
v 2.007635 -0.027099 2.774989
v 2.052760 -0.065251 2.712399
v 2.043941 0.080368 2.676468
v 1.973763 -0.056104 2.677023
v 1.913481 -0.058918 2.758311
v 1.987838 -0.019818 2.814807
v 2.048120 -0.017003 2.733519
v 1.945560 0.061824 2.723236
v 1.978395 -0.070880 2.743295
v 1.932058 -0.037666 2.786934
v 1.980142 -0.040530 2.840172
v 2.026480 -0.073744 2.796533
v 2.043541 0.099282 2.742021
v 1.937857 -0.023396 2.783249
v 1.948121 -0.016110 2.868402
v 2.017361 -0.067094 2.864418
v 2.007097 -0.074379 2.779265
v 2.057557 0.064820 2.804779
v 1.941001 -0.047176 2.795707
v 1.942545 -0.030684 2.880175
v 2.027686 -0.043314 2.881085
v 2.026142 -0.059806 2.796617
v 2.004401 0.088060 2.812002
v 1.991009 -0.020711 2.807559
v 1.939315 -0.027311 2.876069
v 2.008044 -0.027702 2.927890
v 2.059738 -0.021101 2.859381
v 1.993681 0.112753 2.876509
v 1.969270 -0.059751 2.870813
v 1.909387 -0.049485 2.951796
v 1.985179 -0.005191 3.002226
v 2.045062 -0.015457 2.921244
v 1.942525 0.071060 2.897737
v 2.007797 -0.010896 3.171865
v 1.929578 -0.057094 3.216554
v 1.983137 -0.065025 3.302100
v 2.061356 -0.018827 3.257411
v 1.957479 0.057968 3.269660
vt 0.585710 0.648453
vt 0.561608 0.797828
vt 0.632577 0.798033
vt 0.609340 0.648521
vt 0.585710 0.648453
vt 0.585710 0.648453
vt 0.585710 0.648453
vt 0.585710 0.648453
vt 0.609340 0.648521
vt 0.597093 0.797930
vt 0.609340 0.648521
vt 0.597093 0.797930
vt 0.609340 0.648521
vt 0.597093 0.797930
vt 0.609340 0.648521
vt 0.597093 0.797930
vt 0.585710 0.648453
vt 0.609340 0.648521
vt 0.632577 0.798033
vt 0.561608 0.797828
vt 0.585710 0.648453
vt 0.609340 0.648521
vt 0.597093 0.797930
vt 0.585710 0.648453
vt 0.609340 0.648521
vt 0.597093 0.797930
vt 0.585710 0.648453
vt 0.609340 0.648521
vt 0.597093 0.797930
vt 0.585710 0.648453
vt 0.609340 0.648521
vt 0.597093 0.797930
vt 0.585710 0.648453
vt 0.609340 0.648521
vt 0.632577 0.798033
vt 0.561608 0.797828
vt 0.585710 0.648453
vt 0.609340 0.648521
vt 0.597093 0.797930
vt 0.585710 0.648453
vt 0.609340 0.648521
vt 0.597093 0.797930
vt 0.585710 0.648453
vt 0.609340 0.648521
vt 0.597093 0.797930
vt 0.585710 0.648453
vt 0.609340 0.648521
vt 0.597093 0.797930
vt 0.585710 0.648453
vt 0.609340 0.648521
vt 0.632577 0.798033
vt 0.561608 0.797828
vt 0.585710 0.648453
vt 0.609340 0.648521
vt 0.597093 0.797930
vt 0.585710 0.648453
vt 0.609340 0.648521
vt 0.597093 0.797930
vt 0.585710 0.648453
vt 0.609340 0.648521
vt 0.597093 0.797930
vt 0.585710 0.648453
vt 0.609340 0.648521
vt 0.597093 0.797930
vt 0.585710 0.648453
vt 0.609340 0.648521
vt 0.632577 0.798033
vt 0.561608 0.797828
vt 0.585710 0.648453
vt 0.609340 0.648521
vt 0.597093 0.797930
vt 0.585710 0.648453
vt 0.609340 0.648521
vt 0.597093 0.797930
vt 0.585710 0.648453
vt 0.609340 0.648521
vt 0.597093 0.797930
vt 0.585710 0.648453
vt 0.609340 0.648521
vt 0.597093 0.797930
vt 0.585710 0.648453
vt 0.609340 0.648521
vt 0.632577 0.798033
vt 0.561608 0.797828
vt 0.585710 0.648453
vt 0.609340 0.648521
vt 0.597093 0.797930
vt 0.585710 0.648453
vt 0.609340 0.648521
vt 0.597093 0.797930
vt 0.585710 0.648453
vt 0.609340 0.648521
vt 0.597093 0.797930
vt 0.585710 0.648453
vt 0.609340 0.648521
vt 0.597093 0.797930
vt 0.585710 0.648453
vt 0.609340 0.648521
vt 0.632577 0.798033
vt 0.561608 0.797828
vt 0.585710 0.648453
vt 0.609340 0.648521
vt 0.597093 0.797930
vt 0.585710 0.648453
vt 0.609340 0.648521
vt 0.597093 0.797930
vt 0.585710 0.648453
vt 0.609340 0.648521
vt 0.597093 0.797930
vt 0.585710 0.648453
vt 0.609340 0.648521
vt 0.597093 0.797930
vt 0.585710 0.648453
vt 0.609340 0.648521
vt 0.632577 0.798033
vt 0.561608 0.797828
vt 0.585710 0.648453
vt 0.609340 0.648521
vt 0.597093 0.797930
vt 0.585710 0.648453
vt 0.609340 0.648521
vt 0.597093 0.797930
vt 0.585710 0.648453
vt 0.609340 0.648521
vt 0.597093 0.797930
vt 0.585710 0.648453
vt 0.609340 0.648521
vt 0.597093 0.797930
vt 0.585710 0.648453
vt 0.609340 0.648521
vt 0.632577 0.798033
vt 0.561608 0.797828
vt 0.585710 0.648453
vt 0.609340 0.648521
vt 0.597093 0.797930
vt 0.585710 0.648453
vt 0.609340 0.648521
vt 0.597093 0.797930
vt 0.585710 0.648453
vt 0.609340 0.648521
vt 0.597093 0.797930
vt 0.585710 0.648453
vt 0.609340 0.648521
vt 0.597093 0.797930
vt 0.585710 0.648453
vt 0.609340 0.648521
vt 0.632577 0.798033
vt 0.561608 0.797828
vt 0.585710 0.648453
vt 0.609340 0.648521
vt 0.597093 0.797930
vt 0.585710 0.648453
vt 0.609340 0.648521
vt 0.597093 0.797930
vt 0.585710 0.648453
vt 0.609340 0.648521
vt 0.597093 0.797930
vt 0.585710 0.648453
vt 0.609340 0.648521
vt 0.597093 0.797930
vt 0.585710 0.648453
vt 0.609340 0.648521
vt 0.632577 0.798033
vt 0.561608 0.797828
vt 0.585710 0.648453
vt 0.609340 0.648521
vt 0.597093 0.797930
vt 0.585710 0.648453
vt 0.609340 0.648521
vt 0.597093 0.797930
vt 0.585710 0.648453
vt 0.609340 0.648521
vt 0.597093 0.797930
vt 0.585710 0.648453
vt 0.609340 0.648521
vt 0.597093 0.797930
vt 0.585710 0.648453
vt 0.609340 0.648521
vt 0.632577 0.798033
vt 0.561608 0.797828
vt 0.585710 0.648453
vt 0.609340 0.648521
vt 0.597093 0.797930
vt 0.585710 0.648453
vt 0.609340 0.648521
vt 0.597093 0.797930
vt 0.585710 0.648453
vt 0.609340 0.648521
vt 0.597093 0.797930
vt 0.585710 0.648453
vt 0.609340 0.648521
vt 0.597093 0.797930
vt 0.585710 0.648453
vt 0.609340 0.648521
vt 0.632577 0.798033
vt 0.561608 0.797828
vt 0.585710 0.648453
vt 0.609340 0.648521
vt 0.597093 0.797930
vt 0.585710 0.648453
vt 0.609340 0.648521
vt 0.597093 0.797930
vt 0.585710 0.648453
vt 0.609340 0.648521
vt 0.597093 0.797930
vt 0.585710 0.648453
vt 0.609340 0.648521
vt 0.597093 0.797930
vt 0.585710 0.648453
vt 0.609340 0.648521
vt 0.632577 0.798033
vt 0.561608 0.797828
vt 0.585710 0.648453
vt 0.609340 0.648521
vt 0.597093 0.797930
vt 0.585710 0.648453
vt 0.609340 0.648521
vt 0.597093 0.797930
vt 0.585710 0.648453
vt 0.609340 0.648521
vt 0.597093 0.797930
vt 0.585710 0.648453
vt 0.609340 0.648521
vt 0.597093 0.797930
vt 0.585710 0.648453
vt 0.609340 0.648521
vt 0.632577 0.798033
vt 0.561608 0.797828
vt 0.585710 0.648453
vt 0.609340 0.648521
vt 0.597093 0.797930
vt 0.585710 0.648453
vt 0.609340 0.648521
vt 0.597093 0.797930
vt 0.585710 0.648453
vt 0.609340 0.648521
vt 0.597093 0.797930
vt 0.585710 0.648453
vt 0.609340 0.648521
vt 0.597093 0.797930
vt 0.585710 0.648453
vt 0.609340 0.648521
vt 0.632577 0.798033
vt 0.561608 0.797828
vt 0.585710 0.648453
vt 0.609340 0.648521
vt 0.597093 0.797930
vt 0.585710 0.648453
vt 0.609340 0.648521
vt 0.597093 0.797930
vt 0.585710 0.648453
vt 0.609340 0.648521
vt 0.597093 0.797930
vt 0.585710 0.648453
vt 0.609340 0.648521
vt 0.597093 0.797930
vn 0.299452 -0.893478 0.334702
vn 0.299455 -0.893477 0.334703
vn 0.299455 -0.893477 0.334703
vn 0.299458 -0.893476 0.334703
vn -0.805914 -0.043245 -0.590452
vn -0.805914 -0.043245 -0.590452
vn -0.805914 -0.043245 -0.590452
vn -0.661911 0.450604 0.599024
vn -0.661911 0.450604 0.599024
vn -0.661911 0.450604 0.599024
vn 0.566153 0.758603 0.322479
vn 0.566153 0.758603 0.322479
vn 0.566153 0.758603 0.322479
vn 0.422164 0.264753 -0.866997
vn 0.422164 0.264753 -0.866997
vn 0.422164 0.264753 -0.866997
vn 0.042558 -0.997045 -0.063950
vn 0.042558 -0.997045 -0.063949
vn 0.042558 -0.997045 -0.063949
vn 0.042558 -0.997045 -0.063949
vn -0.774651 0.302430 -0.555385
vn -0.774651 0.302430 -0.555384
vn -0.774651 0.302430 -0.555384
vn -0.585802 0.224926 0.778617
vn -0.585802 0.224926 0.778617
vn -0.585802 0.224926 0.778617
vn 0.749210 0.293777 0.593616
vn 0.749210 0.293777 0.593616
vn 0.749210 0.293777 0.593616
vn 0.560341 0.371277 -0.740386
vn 0.560341 0.371277 -0.740386
vn 0.560341 0.371277 -0.740386
vn 0.706088 -0.675197 0.213423
vn 0.706085 -0.675199 0.213423
vn 0.706085 -0.675199 0.213423
vn 0.706083 -0.675202 0.213423
vn -0.867663 -0.354297 0.348762
vn -0.867663 -0.354297 0.348762
vn -0.867663 -0.354297 0.348762
vn -0.051250 0.633305 0.772203
vn -0.051250 0.633305 0.772203
vn -0.051250 0.633305 0.772203
vn 0.445444 0.758052 -0.476380
vn 0.445444 0.758052 -0.476380
vn 0.445444 0.758052 -0.476380
vn -0.370974 -0.229563 -0.899822
vn -0.370974 -0.229563 -0.899822
vn -0.370974 -0.229563 -0.899822
vn -0.146013 -0.970443 0.192145
vn -0.146015 -0.970443 0.192145
vn -0.146016 -0.970443 0.192145
vn -0.146018 -0.970443 0.192145
vn -0.900218 0.430170 -0.067538
vn -0.900218 0.430170 -0.067538
vn -0.900218 0.430170 -0.067538
vn 0.060765 0.472982 0.878974
vn 0.060765 0.472982 0.878974
vn 0.060765 0.472982 0.878974
vn 0.987532 0.150127 -0.047360
vn 0.987532 0.150127 -0.047360
vn 0.987532 0.150127 -0.047360
vn 0.026534 0.107313 -0.993871
vn 0.026534 0.107313 -0.993871
vn 0.026534 0.107313 -0.993871
vn -0.367280 -0.885666 0.284082
vn -0.367281 -0.885665 0.284082
vn -0.367281 -0.885665 0.284082
vn -0.367282 -0.885664 0.284082
vn -0.582281 0.217052 -0.783478
vn -0.582281 0.217052 -0.783478
vn -0.582281 0.217052 -0.783478
vn -0.558428 0.631151 0.538336
vn -0.558428 0.631151 0.538336
vn -0.558428 0.631151 0.538336
vn 0.729889 0.138897 0.669306
vn 0.729889 0.138897 0.669306
vn 0.729889 0.138897 0.669306
vn 0.706045 -0.275195 -0.652509
vn 0.706045 -0.275195 -0.652509
vn 0.706045 -0.275195 -0.652509
vn 0.065107 -0.996749 -0.047456
vn 0.065107 -0.996749 -0.047457
vn 0.065107 -0.996749 -0.047457
vn 0.065107 -0.996749 -0.047457
vn -0.669130 0.388096 -0.633756
vn -0.669130 0.388096 -0.633756
vn -0.669130 0.388096 -0.633756
vn -0.676182 0.326002 0.660682
vn -0.676182 0.326002 0.660682
vn -0.676182 0.326002 0.660682
vn 0.617004 0.409948 0.671750
vn 0.617004 0.409948 0.671750
vn 0.617004 0.409948 0.671750
vn 0.624048 0.472040 -0.622690
vn 0.624048 0.472040 -0.622690
vn 0.624048 0.472040 -0.622690
vn 0.325618 -0.921988 0.209548
vn 0.325618 -0.921988 0.209549
vn 0.325618 -0.921988 0.209549
vn 0.325618 -0.921988 0.209549
vn -0.803243 0.040773 -0.594254
vn -0.803244 0.040773 -0.594254
vn -0.803244 0.040773 -0.594254
vn -0.677311 0.365433 0.638521
vn -0.677311 0.365433 0.638521
vn -0.677311 0.365433 0.638521
vn 0.527330 0.740463 0.416699
vn 0.527330 0.740463 0.416699
vn 0.527330 0.740463 0.416699
vn 0.401407 0.415799 -0.816078
vn 0.401407 0.415799 -0.816078
vn 0.401407 0.415799 -0.816078
vn -0.344110 -0.891315 0.295207
vn -0.344108 -0.891315 0.295208
vn -0.344108 -0.891315 0.295208
vn -0.344106 -0.891315 0.295209
vn -0.640430 0.357579 -0.679696
vn -0.640430 0.357579 -0.679696
vn -0.640430 0.357579 -0.679696
vn -0.397374 0.689442 0.605610
vn -0.397374 0.689442 0.605610
vn -0.397374 0.689442 0.605610
vn 0.846202 0.175397 0.503168
vn 0.846202 0.175397 0.503168
vn 0.846202 0.175397 0.503168
vn 0.603135 -0.156464 -0.782143
vn 0.603135 -0.156464 -0.782143
vn 0.603135 -0.156464 -0.782143
vn -0.344113 -0.891313 0.295206
vn -0.344110 -0.891314 0.295208
vn -0.344110 -0.891314 0.295208
vn -0.344107 -0.891315 0.295209
vn -0.640425 0.357580 -0.679700
vn -0.640425 0.357580 -0.679700
vn -0.640425 0.357580 -0.679700
vn -0.397386 0.689438 0.605607
vn -0.397386 0.689438 0.605607
vn -0.397386 0.689438 0.605607
vn 0.846199 0.175400 0.503172
vn 0.846199 0.175401 0.503172
vn 0.846199 0.175401 0.503172
vn 0.603147 -0.156462 -0.782134
vn 0.603147 -0.156462 -0.782134
vn 0.603148 -0.156462 -0.782133
vn 0.325620 -0.921987 0.209549
vn 0.325620 -0.921988 0.209549
vn 0.325620 -0.921988 0.209549
vn 0.325619 -0.921988 0.209549
vn -0.803240 0.040772 -0.594259
vn -0.803240 0.040772 -0.594259
vn -0.803240 0.040772 -0.594259
vn -0.677311 0.365433 0.638521
vn -0.677311 0.365433 0.638521
vn -0.677311 0.365433 0.638521
vn 0.527328 0.740463 0.416701
vn 0.527328 0.740463 0.416701
vn 0.527328 0.740463 0.416701
vn 0.401403 0.415799 -0.816080
vn 0.401403 0.415799 -0.816080
vn 0.401403 0.415799 -0.816080
vn -0.367275 -0.885667 0.284082
vn -0.367279 -0.885666 0.284082
vn -0.367279 -0.885666 0.284082
vn -0.367282 -0.885664 0.284081
vn -0.582275 0.217054 -0.783482
vn -0.582275 0.217054 -0.783482
vn -0.582275 0.217054 -0.783482
vn -0.558435 0.631148 0.538333
vn -0.558435 0.631148 0.538333
vn -0.558435 0.631148 0.538333
vn 0.729889 0.138897 0.669306
vn 0.729889 0.138897 0.669306
vn 0.729889 0.138897 0.669306
vn 0.706045 -0.275195 -0.652509
vn 0.706045 -0.275195 -0.652509
vn 0.706045 -0.275195 -0.652509
vn -0.582010 -0.801263 0.138714
vn -0.582009 -0.801264 0.138714
vn -0.582009 -0.801264 0.138714
vn -0.582007 -0.801265 0.138714
vn -0.593587 0.804766 0.002692
vn -0.593587 0.804766 0.002692
vn -0.593587 0.804766 0.002692
vn 0.287793 0.320336 0.902530
vn 0.287793 0.320336 0.902530
vn 0.287793 0.320336 0.902530
vn 0.941607 -0.325640 -0.085638
vn 0.941608 -0.325640 -0.085638
vn 0.941607 -0.325640 -0.085638
vn 0.060226 0.158795 -0.985473
vn 0.060226 0.158795 -0.985473
vn 0.060226 0.158795 -0.985473
vn -0.146013 -0.970443 0.192146
vn -0.146015 -0.970443 0.192146
vn -0.146015 -0.970443 0.192146
vn -0.146017 -0.970443 0.192146
vn -0.900215 0.430175 -0.067539
vn -0.900215 0.430175 -0.067539
vn -0.900215 0.430175 -0.067539
vn 0.060756 0.472981 0.878976
vn 0.060756 0.472981 0.878976
vn 0.060756 0.472981 0.878976
vn 0.987532 0.150125 -0.047357
vn 0.987532 0.150125 -0.047357
vn 0.987532 0.150125 -0.047357
vn 0.026544 0.107313 -0.993871
vn 0.026544 0.107313 -0.993871
vn 0.026544 0.107313 -0.993871
vn 0.042558 -0.997045 -0.063950
vn 0.042558 -0.997045 -0.063949
vn 0.042558 -0.997045 -0.063949
vn 0.042559 -0.997045 -0.063949
vn -0.774654 0.302430 -0.555380
vn -0.774654 0.302430 -0.555380
vn -0.774654 0.302430 -0.555380
vn -0.585801 0.224927 0.778617
vn -0.585801 0.224927 0.778617
vn -0.585801 0.224927 0.778617
vn 0.749211 0.293777 0.593614
vn 0.749211 0.293777 0.593614
vn 0.749211 0.293777 0.593614
vn 0.560341 0.371278 -0.740385
vn 0.560341 0.371278 -0.740385
vn 0.560341 0.371278 -0.740385
vn 0.299453 -0.893478 0.334701
vn 0.299454 -0.893477 0.334702
vn 0.299454 -0.893477 0.334702
vn 0.299456 -0.893477 0.334703
vn -0.805914 -0.043244 -0.590452
vn -0.805914 -0.043244 -0.590452
vn -0.805914 -0.043244 -0.590452
vn -0.661911 0.450604 0.599025
vn -0.661911 0.450604 0.599025
vn -0.661911 0.450604 0.599024
vn 0.566154 0.758602 0.322479
vn 0.566154 0.758602 0.322479
vn 0.566154 0.758602 0.322479
vn 0.422164 0.264754 -0.866997
vn 0.422164 0.264754 -0.866996
vn 0.422164 0.264754 -0.866996
vn 0.351001 -0.886360 -0.301934
vn 0.351002 -0.886360 -0.301934
vn 0.351002 -0.886360 -0.301934
vn 0.351002 -0.886360 -0.301934
vn -0.627908 0.446486 -0.637481
vn -0.627908 0.446486 -0.637481
vn -0.627908 0.446486 -0.637481
vn -0.848552 -0.037824 0.527759
vn -0.848552 -0.037824 0.527759
vn -0.848552 -0.037824 0.527759
vn 0.330492 0.304562 0.893318
vn 0.330492 0.304562 0.893318
vn 0.330492 0.304562 0.893318
vn 0.551130 0.788870 -0.271919
vn 0.551130 0.788870 -0.271919
vn 0.551130 0.788870 -0.271919
s 1
g polySurface105
usemtl lambert3SG
f 1/1/1 4/4/2 2/2/3
f 2/2/3 4/4/2 3/3/4
s off
f 1/5/5 2/11/6 5/12/7
f 2/6/8 3/13/9 5/14/10
f 3/7/11 4/15/12 5/16/13
f 4/8/14 1/9/15 5/10/16
s 2
f 6/17/17 9/18/18 7/20/19
f 7/20/19 9/18/18 8/19/20
s off
f 6/21/21 7/22/22 10/23/23
f 7/24/24 8/25/25 10/26/26
f 8/27/27 9/28/28 10/29/29
f 9/30/30 6/31/31 10/32/32
s 3
f 11/33/33 14/34/34 12/36/35
f 12/36/35 14/34/34 13/35/36
s off
f 11/37/37 12/38/38 15/39/39
f 12/40/40 13/41/41 15/42/42
f 13/43/43 14/44/44 15/45/45
f 14/46/46 11/47/47 15/48/48
s 4
f 16/49/49 19/50/50 17/52/51
f 17/52/51 19/50/50 18/51/52
s off
f 16/53/53 17/54/54 20/55/55
f 17/56/56 18/57/57 20/58/58
f 18/59/59 19/60/60 20/61/61
f 19/62/62 16/63/63 20/64/64
s 5
f 21/65/65 24/66/66 22/68/67
f 22/68/67 24/66/66 23/67/68
s off
f 21/69/69 22/70/70 25/71/71
f 22/72/72 23/73/73 25/74/74
f 23/75/75 24/76/76 25/77/77
f 24/78/78 21/79/79 25/80/80
s 6
f 26/81/81 29/82/82 27/84/83
f 27/84/83 29/82/82 28/83/84
s off
f 26/85/85 27/86/86 30/87/87
f 27/88/88 28/89/89 30/90/90
f 28/91/91 29/92/92 30/93/93
f 29/94/94 26/95/95 30/96/96
s 7
f 31/97/97 34/98/98 32/100/99
f 32/100/99 34/98/98 33/99/100
s off
f 31/101/101 32/102/102 35/103/103
f 32/104/104 33/105/105 35/106/106
f 33/107/107 34/108/108 35/109/109
f 34/110/110 31/111/111 35/112/112
s 8
f 36/113/113 39/114/114 37/116/115
f 37/116/115 39/114/114 38/115/116
s off
f 36/117/117 37/118/118 40/119/119
f 37/120/120 38/121/121 40/122/122
f 38/123/123 39/124/124 40/125/125
f 39/126/126 36/127/127 40/128/128
s 9
f 41/129/129 44/130/130 42/132/131
f 42/132/131 44/130/130 43/131/132
s off
f 41/133/133 42/134/134 45/135/135
f 42/136/136 43/137/137 45/138/138
f 43/139/139 44/140/140 45/141/141
f 44/142/142 41/143/143 45/144/144
s 10
f 46/145/145 49/146/146 47/148/147
f 47/148/147 49/146/146 48/147/148
s off
f 46/149/149 47/150/150 50/151/151
f 47/152/152 48/153/153 50/154/154
f 48/155/155 49/156/156 50/157/157
f 49/158/158 46/159/159 50/160/160
s 11
f 51/161/161 54/162/162 52/164/163
f 52/164/163 54/162/162 53/163/164
s off
f 51/165/165 52/166/166 55/167/167
f 52/168/168 53/169/169 55/170/170
f 53/171/171 54/172/172 55/173/173
f 54/174/174 51/175/175 55/176/176
s 12
f 56/177/177 59/178/178 57/180/179
f 57/180/179 59/178/178 58/179/180
s off
f 56/181/181 57/182/182 60/183/183
f 57/184/184 58/185/185 60/186/186
f 58/187/187 59/188/188 60/189/189
f 59/190/190 56/191/191 60/192/192
s 13
f 61/193/193 64/194/194 62/196/195
f 62/196/195 64/194/194 63/195/196
s off
f 61/197/197 62/198/198 65/199/199
f 62/200/200 63/201/201 65/202/202
f 63/203/203 64/204/204 65/205/205
f 64/206/206 61/207/207 65/208/208
s 14
f 66/209/209 69/210/210 67/212/211
f 67/212/211 69/210/210 68/211/212
s off
f 66/213/213 67/214/214 70/215/215
f 67/216/216 68/217/217 70/218/218
f 68/219/219 69/220/220 70/221/221
f 69/222/222 66/223/223 70/224/224
s 15
f 71/225/225 74/226/226 72/228/227
f 72/228/227 74/226/226 73/227/228
s off
f 71/229/229 72/230/230 75/231/231
f 72/232/232 73/233/233 75/234/234
f 73/235/235 74/236/236 75/237/237
f 74/238/238 71/239/239 75/240/240
s 16
f 76/241/241 79/242/242 77/244/243
f 77/244/243 79/242/242 78/243/244
s off
f 76/245/245 77/246/246 80/247/247
f 77/248/248 78/249/249 80/250/250
f 78/251/251 79/252/252 80/253/253
f 79/254/254 76/255/255 80/256/256
