# This file uses centimeters as units for non-parametric coordinates.

mtllib utility_road_straight.mtl
g default
v -2.000000 0.000000 0.100000
v -1.600000 0.000000 0.100000
v -2.000000 0.018612 0.100000
v -1.600000 0.018612 0.100000
v -2.000000 0.018612 -0.100000
v -1.600000 0.018612 -0.100000
v -2.000000 0.000000 -0.100000
v -1.600000 0.000000 -0.100000
vt 0.416575 0.019212
vt 0.583455 0.015767
vt 0.416575 0.230788
vt 0.583455 0.234233
vt 0.416686 0.537615
vt 0.583310 0.528002
vt 0.416678 0.729380
vt 0.583322 0.735324
vt 0.416685 1.001771
vt 0.583310 0.999688
vt 0.874688 0.028002
vt 0.874688 0.221998
vt 0.125312 0.028002
vt 0.125312 0.221998
vt -0.512656 -0.004559
vt 1.512622 -0.005189
vt 1.512622 1.005189
vt -0.512656 1.004559
vn 0.000000 0.000000 1.000000
vn 0.000000 0.000000 1.000000
vn 0.000000 0.000000 1.000000
vn 0.000000 0.000000 1.000000
vn 0.000000 1.000000 0.000000
vn 0.000000 1.000000 0.000000
vn 0.000000 1.000000 0.000000
vn 0.000000 1.000000 0.000000
vn 0.000000 0.000000 -1.000000
vn 0.000000 0.000000 -1.000000
vn 0.000000 0.000000 -1.000000
vn 0.000000 0.000000 -1.000000
vn 0.000000 -1.000000 0.000000
vn 0.000000 -1.000000 0.000000
vn 0.000000 -1.000000 0.000000
vn 0.000000 -1.000000 0.000000
vn 1.000000 0.000000 0.000000
vn 1.000000 0.000000 0.000000
vn 1.000000 0.000000 0.000000
vn 1.000000 0.000000 0.000000
vn -1.000000 0.000000 0.000000
vn -1.000000 0.000000 0.000000
vn -1.000000 0.000000 0.000000
vn -1.000000 0.000000 0.000000
s 1
g pCube5
usemtl lambert2SG
f 1/1/1 2/2/2 3/3/3
f 3/3/3 2/2/2 4/4/4
s 2
f 3/15/5 4/16/6 5/18/7
f 5/18/7 4/16/6 6/17/8
s 3
f 5/5/9 6/6/10 7/7/11
f 7/7/11 6/6/10 8/8/12
s 4
f 7/7/13 8/8/14 1/9/15
f 1/9/15 8/8/14 2/10/16
s 5
f 2/2/17 8/11/18 4/4/19
f 4/4/19 8/11/18 6/12/20
s 6
f 7/13/21 1/1/22 5/14/23
f 5/14/23 1/1/22 3/3/24
