# This file uses centimeters as units for non-parametric coordinates.

mtllib utility_water_edge.mtl
g default
v 0.056631 0.119288 1.200000
v 0.021631 0.144717 1.200000
v -0.021631 0.144717 1.200000
v -0.056631 0.119288 1.200000
v -0.070000 0.078143 1.200000
v -0.056631 0.036998 1.200000
v -0.021631 0.011569 1.200000
v 0.021631 0.011569 1.200000
v 0.056631 0.036998 1.200000
v 0.070000 0.078143 1.200000
v 0.056631 0.119288 1.800000
v 0.021631 0.144717 1.800000
v -0.021631 0.144717 1.800000
v -0.056631 0.119288 1.800000
v -0.070000 0.078143 1.800000
v -0.056631 0.036998 1.800000
v -0.021631 0.011569 1.800000
v 0.021631 0.011569 1.800000
v 0.056631 0.036998 1.800000
v 0.070000 0.078143 1.800000
v 0.000000 0.078143 1.200000
v 0.000000 0.078143 1.800000
v 0.066472 0.126438 1.774177
v 0.025390 0.156286 1.774177
v -0.025390 0.156286 1.774177
v -0.066472 0.126438 1.774177
v -0.082164 0.078143 1.774177
v -0.066472 0.029848 1.774177
v -0.025390 -0.000000 1.774177
v 0.025390 0.000000 1.774177
v 0.066472 0.029848 1.774177
v 0.082164 0.078143 1.774177
v 0.066472 0.126438 1.800000
v 0.025390 0.156286 1.800000
v -0.025390 0.156286 1.800000
v -0.066472 0.126438 1.800000
v -0.082164 0.078143 1.800000
v -0.066472 0.029848 1.800000
v -0.025390 -0.000000 1.800000
v 0.025390 0.000000 1.800000
v 0.066472 0.029848 1.800000
v 0.082164 0.078143 1.800000
v 0.000000 0.078143 1.774177
v 0.000000 0.078143 1.800000
v 0.066472 0.126438 1.498088
v 0.025390 0.156286 1.498088
v -0.025390 0.156286 1.498088
v -0.066472 0.126438 1.498088
v -0.082164 0.078143 1.498088
v -0.066472 0.029848 1.498088
v -0.025390 -0.000000 1.498088
v 0.025390 0.000000 1.498088
v 0.066472 0.029848 1.498088
v 0.082164 0.078143 1.498088
v 0.066472 0.126438 1.523911
v 0.025390 0.156286 1.523911
v -0.025390 0.156286 1.523911
v -0.066472 0.126438 1.523911
v -0.082164 0.078143 1.523911
v -0.066472 0.029848 1.523911
v -0.025390 -0.000000 1.523911
v 0.025390 0.000000 1.523911
v 0.066472 0.029848 1.523911
v 0.082164 0.078143 1.523911
v 0.000000 0.078143 1.498088
v 0.000000 0.078143 1.523911
v 0.066472 0.126438 1.200000
v 0.025390 0.156286 1.200000
v -0.025390 0.156286 1.200000
v -0.066472 0.126438 1.200000
v -0.082164 0.078143 1.200000
v -0.066472 0.029848 1.200000
v -0.025390 -0.000000 1.200000
v 0.025390 0.000000 1.200000
v 0.066472 0.029848 1.200000
v 0.082164 0.078143 1.200000
v 0.066472 0.126438 1.225823
v 0.025390 0.156286 1.225823
v -0.025390 0.156286 1.225823
v -0.066472 0.126438 1.225823
v -0.082164 0.078143 1.225823
v -0.066472 0.029848 1.225823
v -0.025390 -0.000000 1.225823
v 0.025390 0.000000 1.225823
v 0.066472 0.029848 1.225823
v 0.082164 0.078143 1.225823
v 0.000000 0.078143 1.200000
v 0.000000 0.078143 1.225823
vt 0.003782 0.129908
vt -0.052579 0.207481
vt -0.052578 0.303367
vt 0.003782 0.380941
vt 0.094975 0.410571
vt 0.186168 0.380941
vt 0.242529 0.303367
vt 0.242529 0.207481
vt 0.186168 0.129908
vt 0.094975 0.100277
vt 0.213197 0.379790
vt 0.213152 0.355424
vt 0.213152 0.330424
vt 0.213152 0.305424
vt 0.213152 0.280424
vt 0.213152 0.255424
vt 0.213152 0.230424
vt 0.213152 0.205424
vt 0.213152 0.180424
vt 0.213152 0.155424
vt 0.213197 0.131058
vt 0.664159 0.379669
vt 0.664185 0.355501
vt 0.664191 0.330424
vt 0.664191 0.305424
vt 0.664191 0.280424
vt 0.664191 0.255424
vt 0.664191 0.230424
vt 0.664191 0.205424
vt 0.664191 0.180424
vt 0.664185 0.155348
vt 0.664159 0.131180
vt 0.691282 0.129908
vt 0.634921 0.207481
vt 0.634922 0.303367
vt 0.691282 0.380941
vt 0.782475 0.410571
vt 0.873668 0.380941
vt 0.930029 0.303367
vt 0.930029 0.207481
vt 0.873668 0.129908
vt 0.782475 0.100277
vt 0.092368 0.255424
vt 0.779868 0.255424
vt -0.082907 0.630558
vt -0.059524 0.630542
vt -0.059428 0.647189
vt -0.082233 0.647309
vt -0.034559 0.630539
vt -0.034559 0.647186
vt -0.009561 0.630538
vt -0.009561 0.647185
vt 0.015438 0.630538
vt 0.015438 0.647185
vt 0.040438 0.630538
vt 0.040438 0.647185
vt 0.065438 0.630538
vt 0.065438 0.647185
vt 0.090438 0.630538
vt 0.090438 0.647185
vt 0.115435 0.630539
vt 0.115436 0.647186
vt 0.140401 0.630542
vt 0.140305 0.647189
vt 0.163784 0.630558
vt 0.163110 0.647309
vt -0.050193 0.208156
vt 0.005375 0.131674
vt 0.094831 0.255424
vt -0.050193 0.302693
vt 0.005375 0.379175
vt 0.095285 0.408389
vt 0.185195 0.379175
vt 0.240763 0.302693
vt 0.240763 0.208156
vt 0.185195 0.131674
vt 0.095285 0.102460
vt 0.872695 0.131674
vt 0.928263 0.208156
vt 0.782331 0.255424
vt 0.928263 0.302693
vt 0.872695 0.379175
vt 0.782785 0.408389
vt 0.692875 0.379175
vt 0.637307 0.302693
vt 0.637307 0.208156
vt 0.692875 0.131674
vt 0.782785 0.102460
vt -0.082907 0.630558
vt -0.059524 0.630542
vt -0.059428 0.647189
vt -0.082233 0.647309
vt -0.034559 0.630539
vt -0.034559 0.647186
vt -0.009561 0.630538
vt -0.009561 0.647185
vt 0.015438 0.630538
vt 0.015438 0.647185
vt 0.040438 0.630538
vt 0.040438 0.647185
vt 0.065438 0.630538
vt 0.065438 0.647185
vt 0.090438 0.630538
vt 0.090438 0.647185
vt 0.115435 0.630539
vt 0.115436 0.647186
vt 0.140401 0.630542
vt 0.140305 0.647189
vt 0.163784 0.630558
vt 0.163110 0.647309
vt -0.050193 0.208156
vt 0.005375 0.131674
vt 0.094831 0.255424
vt -0.050193 0.302693
vt 0.005375 0.379175
vt 0.095285 0.408389
vt 0.185195 0.379175
vt 0.240763 0.302693
vt 0.240763 0.208156
vt 0.185195 0.131674
vt 0.095285 0.102460
vt 0.872695 0.131674
vt 0.928263 0.208156
vt 0.782331 0.255424
vt 0.928263 0.302693
vt 0.872695 0.379175
vt 0.782785 0.408389
vt 0.692875 0.379175
vt 0.637307 0.302693
vt 0.637307 0.208156
vt 0.692875 0.131674
vt 0.782785 0.102460
vt -0.082907 0.630558
vt -0.059524 0.630542
vt -0.059428 0.647189
vt -0.082233 0.647309
vt -0.034559 0.630539
vt -0.034559 0.647186
vt -0.009561 0.630538
vt -0.009561 0.647185
vt 0.015438 0.630538
vt 0.015438 0.647185
vt 0.040438 0.630538
vt 0.040438 0.647185
vt 0.065438 0.630538
vt 0.065438 0.647185
vt 0.090438 0.630538
vt 0.090438 0.647185
vt 0.115435 0.630539
vt 0.115436 0.647186
vt 0.140401 0.630542
vt 0.140305 0.647189
vt 0.163784 0.630558
vt 0.163110 0.647309
vt -0.050193 0.208156
vt 0.005375 0.131674
vt 0.094831 0.255424
vt -0.050193 0.302693
vt 0.005375 0.379175
vt 0.095285 0.408389
vt 0.185195 0.379175
vt 0.240763 0.302693
vt 0.240763 0.208156
vt 0.185195 0.131674
vt 0.095285 0.102460
vt 0.872695 0.131674
vt 0.928263 0.208156
vt 0.782331 0.255424
vt 0.928263 0.302693
vt 0.872695 0.379175
vt 0.782785 0.408389
vt 0.692875 0.379175
vt 0.637307 0.302693
vt 0.637307 0.208156
vt 0.692875 0.131674
vt 0.782785 0.102460
vn 0.809017 0.587785 0.000000
vn 0.309017 0.951057 0.000000
vn 0.809017 0.587785 0.000000
vn 0.309017 0.951057 0.000000
vn -0.309017 0.951057 0.000000
vn -0.309017 0.951056 0.000000
vn -0.809017 0.587785 0.000000
vn -0.809017 0.587785 0.000000
vn -1.000000 0.000000 0.000000
vn -1.000000 -0.000000 0.000000
vn -0.809017 -0.587785 0.000000
vn -0.809017 -0.587785 0.000000
vn -0.309017 -0.951057 0.000000
vn -0.309017 -0.951057 0.000000
vn 0.309017 -0.951056 0.000000
vn 0.309017 -0.951056 0.000000
vn 0.809017 -0.587785 0.000000
vn 0.809017 -0.587785 0.000000
vn 1.000000 -0.000000 0.000000
vn 1.000000 -0.000000 0.000000
vn 0.000000 0.000000 -1.000000
vn 0.000000 0.000000 -1.000000
vn -0.000000 0.000000 -1.000000
vn 0.000001 0.000000 -1.000000
vn 0.000001 0.000000 -1.000000
vn 0.000001 0.000000 -1.000000
vn 0.000001 0.000000 -1.000000
vn -0.000003 0.000000 -1.000000
vn -0.000003 0.000000 -1.000000
vn 0.000000 0.000000 -1.000000
vn 0.000000 0.000000 -1.000000
vn -0.000003 0.000000 1.000000
vn -0.000003 0.000000 1.000000
vn -0.000000 0.000000 1.000000
vn 0.000000 0.000000 1.000000
vn 0.000000 0.000000 1.000000
vn -0.000001 0.000000 1.000000
vn 0.000002 0.000000 1.000000
vn 0.000000 0.000000 1.000000
vn -0.000000 0.000000 1.000000
vn 0.000003 0.000000 1.000000
vn 0.000000 0.000000 1.000000
vn 0.809017 0.587785 0.000000
vn 0.309017 0.951057 0.000000
vn 0.809017 0.587785 0.000000
vn 0.309017 0.951057 0.000000
vn -0.309017 0.951057 0.000000
vn -0.309017 0.951057 0.000000
vn -0.809017 0.587786 0.000000
vn -0.809017 0.587785 0.000000
vn -1.000000 -0.000000 0.000000
vn -1.000000 -0.000000 0.000000
vn -0.809018 -0.587784 0.000000
vn -0.809018 -0.587785 0.000000
vn -0.309017 -0.951056 0.000000
vn -0.309017 -0.951057 0.000000
vn 0.309020 -0.951056 0.000000
vn 0.309019 -0.951056 0.000000
vn 0.809017 -0.587785 0.000000
vn 0.809017 -0.587786 0.000000
vn 1.000000 0.000000 0.000000
vn 1.000000 -0.000000 0.000000
vn 0.000000 0.000000 -1.000000
vn 0.000000 0.000000 -1.000000
vn -0.000000 0.000000 -1.000000
vn 0.000000 0.000000 -1.000000
vn -0.000000 0.000000 -1.000000
vn -0.000000 0.000000 -1.000000
vn -0.000004 0.000000 -1.000000
vn -0.000004 0.000000 -1.000000
vn 0.000002 0.000000 -1.000000
vn 0.000002 0.000000 -1.000000
vn 0.000000 0.000000 -1.000000
vn 0.000000 0.000000 1.000000
vn 0.000000 0.000000 1.000000
vn -0.000000 0.000000 1.000000
vn 0.000000 0.000000 1.000000
vn 0.000000 0.000000 1.000000
vn -0.000000 0.000000 1.000000
vn -0.000000 0.000000 1.000000
vn 0.000000 0.000000 1.000000
vn 0.000000 0.000000 1.000000
vn 0.000000 0.000000 1.000000
vn 0.000000 0.000000 1.000000
vn 0.809018 0.587783 0.000000
vn 0.309017 0.951056 0.000000
vn 0.809018 0.587785 0.000000
vn 0.309017 0.951057 0.000000
vn -0.309020 0.951056 0.000000
vn -0.309019 0.951056 0.000000
vn -0.809017 0.587785 0.000000
vn -0.809017 0.587785 0.000000
vn -1.000000 -0.000000 0.000000
vn -1.000000 -0.000000 0.000000
vn -0.809018 -0.587784 0.000000
vn -0.809017 -0.587785 0.000000
vn -0.309016 -0.951057 0.000000
vn -0.309014 -0.951057 0.000000
vn 0.309020 -0.951056 0.000000
vn 0.309018 -0.951056 0.000000
vn 0.809016 -0.587786 0.000000
vn 0.809016 -0.587787 0.000000
vn 1.000000 0.000000 0.000000
vn 1.000000 -0.000000 0.000000
vn -0.000002 0.000000 -1.000000
vn -0.000002 0.000000 -1.000000
vn -0.000000 0.000000 -1.000000
vn 0.000002 0.000000 -1.000000
vn 0.000001 0.000000 -1.000000
vn -0.000001 0.000000 -1.000000
vn 0.000000 0.000000 -1.000000
vn 0.000000 0.000000 -1.000000
vn 0.000000 0.000000 -1.000000
vn 0.000000 0.000000 -1.000000
vn 0.000000 0.000000 -1.000000
vn 0.000000 0.000000 1.000000
vn 0.000000 0.000000 1.000000
vn -0.000001 0.000000 1.000000
vn 0.000002 0.000000 1.000000
vn 0.000000 0.000000 1.000000
vn -0.000003 0.000000 1.000000
vn -0.000001 0.000000 1.000000
vn 0.000000 0.000000 1.000000
vn -0.000002 0.000000 1.000000
vn -0.000002 0.000000 1.000000
vn 0.000000 0.000000 1.000000
vn 0.809017 0.587785 0.000000
vn 0.309016 0.951057 0.000000
vn 0.809016 0.587786 0.000000
vn 0.309014 0.951058 0.000000
vn -0.309020 0.951056 0.000000
vn -0.309018 0.951056 0.000000
vn -0.809017 0.587785 0.000000
vn -0.809016 0.587786 0.000000
vn -1.000000 -0.000000 0.000000
vn -1.000000 -0.000000 0.000000
vn -0.809017 -0.587785 0.000000
vn -0.809016 -0.587786 0.000000
vn -0.309016 -0.951057 0.000000
vn -0.309014 -0.951057 0.000000
vn 0.309020 -0.951056 0.000000
vn 0.309018 -0.951056 0.000000
vn 0.809018 -0.587785 0.000000
vn 0.809016 -0.587786 0.000000
vn 1.000000 0.000000 0.000000
vn 1.000000 -0.000000 0.000000
vn 0.000002 0.000000 -1.000000
vn 0.000000 0.000000 -1.000000
vn 0.000000 0.000000 -1.000000
vn 0.000002 0.000000 -1.000000
vn -0.000001 0.000000 -1.000000
vn -0.000001 0.000000 -1.000000
vn -0.000002 0.000000 -1.000000
vn -0.000002 0.000000 -1.000000
vn 0.000001 0.000000 -1.000000
vn 0.000001 0.000000 -1.000000
vn 0.000000 0.000000 -1.000000
vn 0.000001 0.000000 1.000000
vn -0.000001 0.000000 1.000000
vn -0.000000 0.000000 1.000000
vn -0.000002 0.000000 1.000000
vn 0.000001 0.000000 1.000000
vn 0.000001 0.000000 1.000000
vn 0.000001 0.000000 1.000000
vn 0.000001 0.000000 1.000000
vn -0.000002 0.000000 1.000000
vn -0.000002 0.000000 1.000000
vn 0.000000 0.000000 1.000000
s 1
g polySurface8
usemtl lambert3SG
f 1/11/1 2/12/2 11/22/3
f 11/22/3 2/12/2 12/23/4
f 2/12/2 3/13/5 12/23/4
f 12/23/4 3/13/5 13/24/6
f 3/13/5 4/14/7 13/24/6
f 13/24/6 4/14/7 14/25/8
f 4/14/7 5/15/9 14/25/8
f 14/25/8 5/15/9 15/26/10
f 5/15/9 6/16/11 15/26/10
f 15/26/10 6/16/11 16/27/12
f 6/16/11 7/17/13 16/27/12
f 16/27/12 7/17/13 17/28/14
f 7/17/13 8/18/15 17/28/14
f 17/28/14 8/18/15 18/29/16
f 8/18/15 9/19/17 18/29/16
f 18/29/16 9/19/17 19/30/18
f 9/19/17 10/20/19 19/30/18
f 19/30/18 10/20/19 20/31/20
f 10/20/19 1/21/1 20/31/20
f 20/31/20 1/21/1 11/32/3
s 2
f 2/2/21 1/1/22 21/43/23
f 3/3/24 2/2/21 21/43/23
f 4/4/25 3/3/24 21/43/23
f 5/5/26 4/4/25 21/43/23
f 6/6/27 5/5/26 21/43/23
f 7/7/28 6/6/27 21/43/23
f 8/8/29 7/7/28 21/43/23
f 9/9/30 8/8/29 21/43/23
f 10/10/31 9/9/30 21/43/23
f 1/1/22 10/10/31 21/43/23
s 3
f 11/41/32 12/40/33 22/44/34
f 12/40/33 13/39/35 22/44/34
f 13/39/35 14/38/36 22/44/34
f 14/38/36 15/37/37 22/44/34
f 15/37/37 16/36/38 22/44/34
f 16/36/38 17/35/39 22/44/34
f 17/35/39 18/34/40 22/44/34
f 18/34/40 19/33/41 22/44/34
f 19/33/41 20/42/42 22/44/34
f 20/42/42 11/41/32 22/44/34
s 4
f 23/45/43 24/46/44 33/48/45
f 33/48/45 24/46/44 34/47/46
f 24/46/44 25/49/47 34/47/46
f 34/47/46 25/49/47 35/50/48
f 25/49/47 26/51/49 35/50/48
f 35/50/48 26/51/49 36/52/50
f 26/51/49 27/53/51 36/52/50
f 36/52/50 27/53/51 37/54/52
f 27/53/51 28/55/53 37/54/52
f 37/54/52 28/55/53 38/56/54
f 28/55/53 29/57/55 38/56/54
f 38/56/54 29/57/55 39/58/56
f 29/57/55 30/59/57 39/58/56
f 39/58/56 30/59/57 40/60/58
f 30/59/57 31/61/59 40/60/58
f 40/60/58 31/61/59 41/62/60
f 31/61/59 32/63/61 41/62/60
f 41/62/60 32/63/61 42/64/62
f 32/63/61 23/65/43 42/64/62
f 42/64/62 23/65/43 33/66/45
s 5
f 24/67/63 23/68/64 43/69/65
f 25/70/66 24/67/63 43/69/65
f 26/71/67 25/70/66 43/69/65
f 27/72/68 26/71/67 43/69/65
f 28/73/69 27/72/68 43/69/65
f 29/74/70 28/73/69 43/69/65
f 30/75/71 29/74/70 43/69/65
f 31/76/72 30/75/71 43/69/65
f 32/77/73 31/76/72 43/69/65
f 23/68/64 32/77/73 43/69/65
s 6
f 33/78/74 34/79/75 44/80/76
f 34/79/75 35/81/77 44/80/76
f 35/81/77 36/82/78 44/80/76
f 36/82/78 37/83/79 44/80/76
f 37/83/79 38/84/80 44/80/76
f 38/84/80 39/85/81 44/80/76
f 39/85/81 40/86/82 44/80/76
f 40/86/82 41/87/83 44/80/76
f 41/87/83 42/88/84 44/80/76
f 42/88/84 33/78/74 44/80/76
s 7
f 45/89/85 46/90/86 55/92/87
f 55/92/87 46/90/86 56/91/88
f 46/90/86 47/93/89 56/91/88
f 56/91/88 47/93/89 57/94/90
f 47/93/89 48/95/91 57/94/90
f 57/94/90 48/95/91 58/96/92
f 48/95/91 49/97/93 58/96/92
f 58/96/92 49/97/93 59/98/94
f 49/97/93 50/99/95 59/98/94
f 59/98/94 50/99/95 60/100/96
f 50/99/95 51/101/97 60/100/96
f 60/100/96 51/101/97 61/102/98
f 51/101/97 52/103/99 61/102/98
f 61/102/98 52/103/99 62/104/100
f 52/103/99 53/105/101 62/104/100
f 62/104/100 53/105/101 63/106/102
f 53/105/101 54/107/103 63/106/102
f 63/106/102 54/107/103 64/108/104
f 54/107/103 45/109/85 64/108/104
f 64/108/104 45/109/85 55/110/87
s 8
f 46/111/105 45/112/106 65/113/107
f 47/114/108 46/111/105 65/113/107
f 48/115/109 47/114/108 65/113/107
f 49/116/110 48/115/109 65/113/107
f 50/117/111 49/116/110 65/113/107
f 51/118/112 50/117/111 65/113/107
f 52/119/113 51/118/112 65/113/107
f 53/120/114 52/119/113 65/113/107
f 54/121/115 53/120/114 65/113/107
f 45/112/106 54/121/115 65/113/107
s 9
f 55/122/116 56/123/117 66/124/118
f 56/123/117 57/125/119 66/124/118
f 57/125/119 58/126/120 66/124/118
f 58/126/120 59/127/121 66/124/118
f 59/127/121 60/128/122 66/124/118
f 60/128/122 61/129/123 66/124/118
f 61/129/123 62/130/124 66/124/118
f 62/130/124 63/131/125 66/124/118
f 63/131/125 64/132/126 66/124/118
f 64/132/126 55/122/116 66/124/118
s 10
f 67/133/127 68/134/128 77/136/129
f 77/136/129 68/134/128 78/135/130
f 68/134/128 69/137/131 78/135/130
f 78/135/130 69/137/131 79/138/132
f 69/137/131 70/139/133 79/138/132
f 79/138/132 70/139/133 80/140/134
f 70/139/133 71/141/135 80/140/134
f 80/140/134 71/141/135 81/142/136
f 71/141/135 72/143/137 81/142/136
f 81/142/136 72/143/137 82/144/138
f 72/143/137 73/145/139 82/144/138
f 82/144/138 73/145/139 83/146/140
f 73/145/139 74/147/141 83/146/140
f 83/146/140 74/147/141 84/148/142
f 74/147/141 75/149/143 84/148/142
f 84/148/142 75/149/143 85/150/144
f 75/149/143 76/151/145 85/150/144
f 85/150/144 76/151/145 86/152/146
f 76/151/145 67/153/127 86/152/146
f 86/152/146 67/153/127 77/154/129
s 11
f 68/155/147 67/156/148 87/157/149
f 69/158/150 68/155/147 87/157/149
f 70/159/151 69/158/150 87/157/149
f 71/160/152 70/159/151 87/157/149
f 72/161/153 71/160/152 87/157/149
f 73/162/154 72/161/153 87/157/149
f 74/163/155 73/162/154 87/157/149
f 75/164/156 74/163/155 87/157/149
f 76/165/157 75/164/156 87/157/149
f 67/156/148 76/165/157 87/157/149
s 12
f 77/166/158 78/167/159 88/168/160
f 78/167/159 79/169/161 88/168/160
f 79/169/161 80/170/162 88/168/160
f 80/170/162 81/171/163 88/168/160
f 81/171/163 82/172/164 88/168/160
f 82/172/164 83/173/165 88/168/160
f 83/173/165 84/174/166 88/168/160
f 84/174/166 85/175/167 88/168/160
f 85/175/167 86/176/168 88/168/160
f 86/176/168 77/166/158 88/168/160
